<svg xmlns="http://www.w3.org/2000/svg" version="1.1" xmlns:xlink="http://www.w3.org/1999/xlink" width="100" height="100" x="0" y="0" viewBox="0 0 512 512" style="enable-background:new 0 0 512 512" xml:space="preserve" class=""><g><g fill-rule="evenodd" clip-rule="evenodd"><path fill="#fefdeb" d="m152.06 476.42 4.5-265.38-16.27 73.53-101-24.69 88.64-185.76 64.55-39.29 71.8 43.77 71.83-43.77 64.52 39.29 88.66 185.76-100.99 24.69-16.28-73.53 4.48 265.38z" opacity="1" data-original="#fefdeb" class=""></path><path fill="#f2edd7" d="m81.16 229.57-22.05-5.38 68.82-144.23 64.55-39.29 71.8 43.77 71.83-43.77 64.52 39.29 68.85 144.23-22.05 5.38-46.8-98.02-64.52-39.29-71.83 43.77-71.8-43.77-64.55 39.29z" opacity="1" data-original="#f2edd7"></path><path fill="#ae6f50" d="M111.1 114.12 58.8 223.65l64.91 24.97-.51-33.05c4.14-4.17 5.27-10.43 2.89-15.79s-7.8-8.7-13.66-8.42c17.69-7.23 28.12-25.6 25.31-44.48-2.27-15.24-12.7-27.63-26.64-32.76zM419.73 114.12 472 223.65l-64.91 24.97.51-33.05c-4.11-4.17-5.27-10.43-2.89-15.79s7.8-8.7 13.66-8.42c-17.66-7.23-28.12-25.6-25.31-44.48 2.27-15.24 12.72-27.63 26.67-32.76zM156.19 284.31l-1.33 94.54c5.58 4.28 12.95 1.16 22.08-9.33 7.63-10.4 9.55-23.78 5.13-35.8 34.36-19.11 47.91-60.89 31.01-95.81-9.46 24.06-31.01 41.61-56.89 46.4zm216.2 0 1.33 94.54c-5.61 4.28-12.95 1.16-22.08-9.33-7.63-10.4-9.55-23.78-5.13-35.8-34.38-19.11-47.91-60.89-31.04-95.81 9.5 24.06 31.04 41.61 56.92 46.4zM312.3 475.48c25.74-26.19 26.25-68 1.19-94.82a72.71 72.71 0 0 0-49.21-55.79c-25.4 8.16-44.28 29.57-49.18 55.79-25.09 26.82-24.55 68.63 1.19 94.82zM194.58 36.11l-26.22 13.41 76.28 64.15 19.64-35.07 69.73-42.49 26.22 13.41-76.28 64.15-19.67-35.07z" opacity="1" data-original="#ae6f50" class=""></path></g><path d="M221.28 197.85a37.464 37.464 0 0 1-10.2 5.64 37.246 37.246 0 0 1-18.11 1.81c-3.8-.57-6.46-4.11-5.9-7.94a6.99 6.99 0 0 1 7.94-5.9c3.88.57 7.77.17 11.31-1.11 2.07-.77 4.05-1.81 5.84-3.15-4.31-5.44-7.82-10.52-10.6-15.25-1.64 1.53-3.43 2.86-5.3 4.05a36.156 36.156 0 0 1-13.61 5.19c-4.9.79-9.84.6-14.57-.57a36.215 36.215 0 0 1-13.18-6.18c-3.09-2.3-3.74-6.66-1.45-9.75 2.3-3.12 6.66-3.77 9.75-1.47 2.47 1.84 5.24 3.15 8.16 3.85 2.92.71 5.98.85 9.04.34 3-.51 5.87-1.62 8.42-3.2 2.41-1.53 4.51-3.51 6.21-5.87-1.22-3.49-1.98-6.69-2.32-9.58-1.64-13.46 4.34-22.03 12.81-25.71 8.08-3.52 18.4-2.15 26.16 3.97 8.33 6.55 13.83 18.4 10.12 35.06-.85 3.77-4.56 6.15-8.31 5.33-3.77-.85-6.15-4.56-5.33-8.33 2.35-10.49-.57-17.49-5.13-21.09-3.71-2.92-8.42-3.69-11.93-2.15-3.12 1.36-5.27 5.05-4.51 11.28 1.62 13.44 14.68 35.06 50.68 65.85V105.42l-6.55 11.68c-.23.37-.48.74-.77 1.08-2.47 2.95-6.86 3.32-9.81.85L167.7 58.11l-34.33 20.92-14.71 30.81c6.07 3.06 11.4 7.4 15.68 12.64 5.36 6.58 9.01 14.6 10.32 23.44 1.64 11-.6 21.85-5.81 31.04a48.87 48.87 0 0 1-11.14 13.29 20.94 20.94 0 0 1 4.76 6.75c1.76 4 2.24 8.31 1.47 12.42-.57 3.09-1.81 6.07-3.71 8.67l.45 30.44c.03.85-.11 1.73-.45 2.61-1.36 3.57-5.41 5.39-8.99 4l-60.77-23.36-11.17 23.39 85.72 20.95 14.68-66.42a6.975 6.975 0 0 1 6.97-5.61c3.85.06 6.92 3.23 6.86 7.06l-1.11 64.49c8.84-2.64 16.98-7 23.95-12.7 8.87-7.23 15.9-16.64 20.21-27.55a6.901 6.901 0 0 1 3.46-3.74c3.49-1.67 7.65-.23 9.33 3.26 9.24 19.13 10.18 40.14 4.05 58.99-5.56 17.18-16.95 32.54-33.14 43.03 1.22 5.39 1.42 10.91.65 16.3a45.478 45.478 0 0 1-8.36 20.44c-.11.17-.23.31-.37.45-5.27 6.07-10.23 10.09-14.94 12.08-2.32.96-4.56 1.5-6.75 1.59l-1.36 81.64h43.2c-8.28-12.36-12.53-26.65-12.7-40.99-.23-18.2 6.07-36.48 18.96-51a79.43 79.43 0 0 1 18.11-36.03 79.3 79.3 0 0 1 30.53-21.4v-88.84c-14.91-12.17-26.73-23.28-35.97-33.32zm95.19-10.6c1.79 1.3 3.74 2.35 5.81 3.12 3.54 1.28 7.43 1.67 11.31 1.11 3.83-.57 7.37 2.07 7.94 5.9.54 3.83-2.1 7.37-5.92 7.94-6.15.91-12.36.26-18.08-1.81a37.92 37.92 0 0 1-10.18-5.61c-9.18 9.98-21 21.06-36.06 33.28V320a79.406 79.406 0 0 1 30.53 21.4c8.9 10.06 15.22 22.42 18.14 36.03 12.9 14.51 19.19 32.8 18.96 51-.2 14.34-4.42 28.63-12.73 40.99h43.23l-1.39-81.64c-2.15-.08-4.39-.62-6.75-1.59-4.68-1.98-9.67-6.01-14.94-12.08-.11-.14-.23-.28-.34-.45-4.51-6.12-7.34-13.15-8.36-20.44-.77-5.39-.57-10.91.65-16.3-16.21-10.49-27.58-25.85-33.17-43.03-6.09-18.85-5.19-39.86 4.08-58.99 1.67-3.49 5.84-4.93 9.33-3.26 1.64.79 2.83 2.15 3.46 3.74 4.31 10.91 11.31 20.32 20.21 27.55a68.968 68.968 0 0 0 23.92 12.7l-1.08-64.46c-.08-3.23 2.15-6.21 5.47-6.94 3.74-.82 7.48 1.56 8.31 5.33l14.74 66.56 85.72-20.95-10.83-22.68-58.88 22.65c-3.6 1.39-7.63-.43-9.01-4-.31-.88-.48-1.76-.45-2.61l.48-30.44a20.923 20.923 0 0 1-3.74-8.67 21.44 21.44 0 0 1 1.47-12.42 20.94 20.94 0 0 1 4.76-6.75 49.02 49.02 0 0 1-11.14-13.29c-5.22-9.18-7.46-20.04-5.81-31.04 1.3-8.84 4.99-16.87 10.32-23.44a48.63 48.63 0 0 1 13.92-11.71L395.2 79.02 360.87 58.1l-72.45 60.92a6.998 6.998 0 0 1-9.84-.85c-.28-.34-.51-.71-.74-1.08h-.03l-6.55-11.68v107.6c34.84-29.76 47.82-50.4 49.66-63.21.82-5.84-1.19-9.21-4.25-10.4-3.83-1.47-9.07-.48-13.32 2.72-5.22 3.91-8.7 11.42-6.26 22.39.82 3.74-1.56 7.48-5.3 8.31-3.77.82-7.48-1.53-8.31-5.3-3.85-17.29 2.38-29.71 11.51-36.57 8.05-6.07 18.54-7.68 26.67-4.56 8.9 3.43 15.05 11.82 13.1 25.4-.28 1.96-.77 4.05-1.45 6.29 1.73 2.47 3.91 4.56 6.43 6.15 2.55 1.59 5.41 2.69 8.42 3.2 3.03.51 6.12.37 9.04-.34 2.89-.71 5.67-2.01 8.14-3.85a6.984 6.984 0 0 1 9.78 1.47c2.3 3.09 1.64 7.46-1.45 9.75a36.348 36.348 0 0 1-13.21 6.18 36.472 36.472 0 0 1-14.54.57c-4.9-.79-9.52-2.58-13.63-5.19a38.225 38.225 0 0 1-5.27-4.05c-2.7 4.68-6.19 9.78-10.55 15.28zm-93.18 188.99c22.76 14.31 30.81 28.52 31.27 39.77.34 9.01-3.91 16.16-9.78 20.49-6.04 4.45-13.86 5.95-20.44 3.6-6.72-2.38-11.96-8.36-12.7-18.71-.28-3.88.51-7.74 2.24-11.14 1.7-3.4 4.31-6.32 7.63-8.45 3.23-2.07 7.54-1.11 9.61 2.13 2.07 3.26 1.11 7.57-2.13 9.64a7.516 7.516 0 0 0-2.66 2.92 7.952 7.952 0 0 0-.77 3.91c.28 3.86 1.7 5.9 3.49 6.52 2.18.79 5.05.11 7.4-1.64 2.52-1.84 4.31-4.88 4.17-8.73-.28-7.11-6.32-16.67-23.39-27.67-9.27 11.48-13.78 25.46-13.61 39.37.17 14.83 5.7 29.59 16.53 41.16h37.13V335.25a66.253 66.253 0 0 0-20.01 15.39c-6.44 7.32-11.26 16.02-13.98 25.6zm88.07 12.64c-17.06 11-23.1 20.55-23.39 27.67-.17 3.86 1.64 6.89 4.14 8.73 2.38 1.76 5.24 2.44 7.43 1.64 1.76-.62 3.17-2.66 3.46-6.52.11-1.39-.17-2.72-.77-3.91-.6-1.16-1.5-2.18-2.64-2.92-3.26-2.07-4.2-6.38-2.15-9.64 2.07-3.23 6.41-4.2 9.64-2.13 3.32 2.13 5.92 5.05 7.63 8.45 1.7 3.4 2.52 7.26 2.24 11.14-.74 10.35-5.98 16.33-12.7 18.71-6.58 2.35-14.43.85-20.44-3.6-5.9-4.34-10.15-11.48-9.78-20.49.45-11.25 8.5-25.46 31.24-39.77-2.69-9.58-7.51-18.28-13.95-25.6a65.855 65.855 0 0 0-20.04-15.39v134.16h37.16c10.8-11.57 16.33-26.33 16.53-41.16a61.512 61.512 0 0 0-13.61-39.37zm-131.1-338.4 62.39 52.44L254.9 81.1l-62.42-38.04zm93.43 30.62 12.22 21.83 62.39-52.44-12.19-7.43zm-112.9 292.56c.34-.06.68-.17 1.08-.34 2.64-1.11 5.81-3.8 9.58-8.08 3.03-4.22 4.96-9.01 5.67-13.97.71-5.02.2-10.2-1.62-15.14-1.25-3.4.31-7.14 3.52-8.7 15.39-8.65 26.14-22.34 31.15-37.79 3.52-10.91 4.2-22.71 1.64-34.21-4.56 6.94-10.2 13.12-16.61 18.34a83.614 83.614 0 0 1-33 16.41zm205.59-83.48c-12.27-3-23.53-8.67-33-16.41a81.403 81.403 0 0 1-16.64-18.34c-2.55 11.51-1.87 23.3 1.67 34.21 5.02 15.45 15.73 29.14 31.15 37.79 3.17 1.56 4.76 5.3 3.52 8.7a31.314 31.314 0 0 0-1.62 15.14c.71 4.96 2.61 9.75 5.67 13.97 3.74 4.28 6.94 6.97 9.55 8.08.4.17.77.28 1.11.34zm50.03-166.76a34.673 34.673 0 0 0-9.13 7.88 34.382 34.382 0 0 0-7.31 16.64 34.51 34.51 0 0 0 4.14 22.14c3.66 6.43 9.35 11.68 16.53 14.71 2.83.96 4.85 3.74 4.71 6.89-.17 3.86-3.43 6.83-7.28 6.69-1.5-.08-2.95.31-4.17 1.05-1.22.77-2.21 1.87-2.81 3.23s-.77 2.83-.51 4.25.94 2.72 1.98 3.8a6.908 6.908 0 0 1 2.01 5.02l-.37 22.73 48.25-18.57zM66.48 219.17l50.12 19.28-.37-22.73c-.03-1.96.77-3.74 2.04-5.02 1.02-1.08 1.7-2.38 1.96-3.8.25-1.42.11-2.89-.51-4.25a7.252 7.252 0 0 0-2.81-3.23 7.279 7.279 0 0 0-4.17-1.05c-3.85.14-7.12-2.83-7.29-6.69-.14-3.15 1.87-5.92 4.71-6.89 7.17-3.03 12.87-8.28 16.55-14.71 3.71-6.52 5.3-14.26 4.11-22.14-.94-6.29-3.52-11.99-7.31-16.64a34.438 34.438 0 0 0-10.86-8.84zm78.63 256.54 3.32-195.59-1.33 5.98c-.82 3.74-4.56 6.12-8.31 5.3l-.14-.03-101-24.69c-3.74-.91-6.04-4.68-5.13-8.42.11-.48.26-.94.48-1.36h-.03l88.64-185.75a7.14 7.14 0 0 1 3.06-3.2l64.15-39.03c2.35-1.45 5.22-1.3 7.37.06l68.09 41.5 68.2-41.56c2.32-1.45 5.19-1.3 7.34.06l64.46 39.2c1.19.74 2.1 1.79 2.66 2.98l88.67 185.75a7.03 7.03 0 0 1-3.32 9.33c-.62.28-1.25.48-1.87.57l-100.49 24.58c-3.74.91-7.51-1.39-8.42-5.13-.03-.14-.06-.26-.09-.4l-1.28-5.73 3.32 196.21c.06 3.83-3 7-6.86 7.06h-.11v.03H152.06c-3.85 0-6.97-3.12-6.97-7-.01-.24-.01-.5.02-.72z" fill="#000000" opacity="1" data-original="#000000" class=""></path></g></svg>
