<svg xmlns="http://www.w3.org/2000/svg" version="1.1" xmlns:xlink="http://www.w3.org/1999/xlink" width="100" height="100" x="0" y="0" viewBox="0 0 512 512" style="enable-background:new 0 0 512 512" xml:space="preserve" class=""><g><path d="M266 217.689c0 3.861-1.021 7.665-2.95 10.999l-.29.501.29.501a21.754 21.754 0 0 1 2.813 8.644l.125 1.174 1.138-.317a27.52 27.52 0 0 1 7.374-1.001c8.403 0 16.236 3.774 21.492 10.354l.355.445.565-.079a22.299 22.299 0 0 1 3.087-.221c4.888 0 9.518 1.573 13.391 4.55l.609.468.609-.468c3.873-2.977 8.503-4.55 13.391-4.55s9.518 1.573 13.391 4.55l1.609 1.237v-33.787c0-2.206 1.794-4 4-4h8.651c-1.71-9.966-9.645-18.148-20.193-19.685a24.083 24.083 0 0 0-5.037-.2c.029-.174.064-.345.089-.521 1.912-13.116-7.172-25.299-20.288-27.21-12.358-1.801-23.883 6.159-26.774 18.055a23.893 23.893 0 0 0-10.601-4.302c-10.587-1.543-20.562 4.08-25.022 13.203 10.314 1.817 18.176 10.834 18.176 21.66z" style="" fill="#c86d36" data-original="#c86d36"></path><path d="M335.458 197.003a24.083 24.083 0 0 0-5.037-.2c.029-.174.064-.345.09-.521 1.912-13.116-7.172-25.299-20.288-27.21-9.458-1.378-18.422 2.965-23.408 10.41a23.886 23.886 0 0 1 10.757-.886c13.116 1.912 22.2 14.094 20.288 27.21-.026.175-.06.347-.089.521a24.083 24.083 0 0 1 5.037.2c10.548 1.537 18.482 9.719 20.193 19.685v-5.524c0-2.206 1.794-4 4-4h8.651c-1.711-9.966-9.646-18.147-20.194-19.685z" style="" fill="#ac5e2e" data-original="#ac5e2e"></path><path d="M355.438 215.689c-2.056-9.507-9.789-17.2-19.98-18.685a24.083 24.083 0 0 0-5.037-.2c.029-.174.064-.345.09-.521 1.912-13.116-7.172-25.299-20.288-27.21-12.358-1.801-23.883 6.159-26.774 18.055a23.893 23.893 0 0 0-10.601-4.302c-10.219-1.489-19.853 3.708-24.522 12.275" style="stroke-width:15;stroke-linecap:round;stroke-linejoin:round;stroke-miterlimit:10;" fill="none" stroke="#000000" stroke-width="15" stroke-linecap="round" stroke-linejoin="round" stroke-miterlimit="10" data-original="#000000"></path><path d="M178.881 235.042c2.007 2.008 3.113 4.678 3.113 7.517s-1.106 5.508-3.113 7.516l-4.455 4.457 3.669-1.024a21.98 21.98 0 0 1 5.905-.818 21.79 21.79 0 0 1 13.391 4.55l.609.468.609-.468A21.788 21.788 0 0 1 212 252.69c.143 0 .285.005.427.01l.817.022.296-.524c4.876-8.641 14.057-14.008 23.96-14.008a27.501 27.501 0 0 1 17.85 6.59l.65.556.649-.555a27.5 27.5 0 0 1 10.303-5.518 22.873 22.873 0 0 0-3.037-10.073 22.888 22.888 0 0 0 3.085-11.5c0-12.703-10.297-23-23-23a22.892 22.892 0 0 0-14 4.757c-3.878-2.981-8.731-4.757-14-4.757s-10.122 1.776-14 4.757a22.892 22.892 0 0 0-14-4.757c-12.703 0-23 10.297-23 23 0 1.296.12 2.562.327 3.8l13.554 13.552z" style="" fill="#c86d36" data-original="#c86d36"></path><path d="M267 217.689c0-12.703-10.297-23-23-23-3.579 0-6.956.835-9.976 2.295 7.68 3.725 12.976 11.596 12.976 20.705 0 4.191-1.126 8.116-3.085 11.5a22.877 22.877 0 0 1 3.037 10.073c-.323.092-.641.198-.96.302 3.405 1.109 6.596 2.855 9.358 5.215l.65.556.649-.555a27.5 27.5 0 0 1 10.303-5.518 22.873 22.873 0 0 0-3.037-10.073 22.878 22.878 0 0 0 3.085-11.5z" style="" fill="#ac5e2e" data-original="#ac5e2e"></path><path d="M266.858 238.227a22.847 22.847 0 0 0-2.943-9.038 22.888 22.888 0 0 0 3.085-11.5c0-12.703-10.297-23-23-23a22.892 22.892 0 0 0-14 4.757c-3.878-2.981-8.731-4.757-14-4.757s-10.122 1.776-14 4.757a22.892 22.892 0 0 0-14-4.757c-12.703 0-23 10.297-23 23 0 .736.047 1.46.119 2.177" style="stroke-width:15;stroke-linecap:round;stroke-linejoin:round;stroke-miterlimit:10;" fill="none" stroke="#000000" stroke-width="15" stroke-linecap="round" stroke-linejoin="round" stroke-miterlimit="10" data-original="#000000"></path><path d="M210.896 308.911h90.207a28.41 28.41 0 0 0 1.896-10.223 28.36 28.36 0 0 0-5.269-16.5 28.36 28.36 0 0 0 5.269-16.5c0-15.74-12.76-28.5-28.5-28.5a28.378 28.378 0 0 0-18.5 6.83 28.378 28.378 0 0 0-18.5-6.83c-15.74 0-28.5 12.76-28.5 28.5a28.36 28.36 0 0 0 5.269 16.5 28.36 28.36 0 0 0-5.269 16.5 28.45 28.45 0 0 0 1.897 10.223z" style="" fill="#fe7d43" data-original="#fe7d43"></path><path d="M296.774 247.919c-5.222-6.537-13.256-10.73-22.274-10.73a28.378 28.378 0 0 0-18.5 6.83 28.378 28.378 0 0 0-18.5-6.83c-10.657 0-19.942 5.853-24.831 14.517" style="stroke-width:15;stroke-linecap:round;stroke-linejoin:round;stroke-miterlimit:10;" fill="none" stroke="#000000" stroke-width="15" stroke-linecap="round" stroke-linejoin="round" stroke-miterlimit="10" data-original="#000000"></path><path d="M356 248.689c8.191 0 15.654 4.51 19.477 11.771l.402.765.814-.287A21.948 21.948 0 0 1 384 259.69c4.888 0 9.518 1.573 13.391 4.55l.609.468.609-.468A21.788 21.788 0 0 1 412 259.69c.336 0 .667.026 1 .04v-39.04a5 5 0 0 0-5-5h-61a5 5 0 0 0-5 5v33.018l.609-.468A21.783 21.783 0 0 1 356 248.689z" style="" fill="#ffe177" data-original="#ffe177"></path><path d="M408 215.689h-20a5 5 0 0 1 5 5v40.926a21.92 21.92 0 0 1 4.391 2.623l.609.468.609-.468a21.788 21.788 0 0 1 13.391-4.55c.336 0 .667.026 1 .04v-39.04a5 5 0 0 0-5-4.999z" style="" fill="#ffd15b" data-original="#ffd15b"></path><path d="M356 248.689c8.191 0 15.654 4.51 19.477 11.771l.402.765.814-.287A21.948 21.948 0 0 1 384 259.69c4.888 0 9.518 1.573 13.391 4.55l.609.468.609-.468A21.788 21.788 0 0 1 412 259.69c.336 0 .667.026 1 .04v-39.04a5 5 0 0 0-5-5h-61a5 5 0 0 0-5 5v33.018l.609-.468A21.783 21.783 0 0 1 356 248.689z" style="stroke-width:15;stroke-linecap:round;stroke-linejoin:round;stroke-miterlimit:10;" fill="none" stroke="#000000" stroke-width="15" stroke-linecap="round" stroke-linejoin="round" stroke-miterlimit="10" data-original="#000000"></path><path d="m142.827 255.589.443 1.122 1.02-.644a21.933 21.933 0 0 1 11.709-3.379 21.79 21.79 0 0 1 13.391 4.55l.609.468.609-.468a21.949 21.949 0 0 1 5.66-3.138l3.319-3.319c4.542-4.542 4.542-11.905 0-16.446l-17.495-17.495c-4.542-4.542-11.905-4.542-16.446 0l-17.495 17.495a11.57 11.57 0 0 0-2.953 5.018c7.925 2.369 14.463 8.224 17.629 16.236z" style="" fill="#ffe177" data-original="#ffe177"></path><path d="m179.588 234.336-17.495-17.495c-4.542-4.542-11.905-4.542-16.446 0l-2.274 2.274 15.221 15.221c4.542 4.542 4.542 11.905 0 16.446l-1.934 1.934c4.642.136 9.033 1.682 12.73 4.523l.609.468.609-.468a21.949 21.949 0 0 1 5.66-3.138l3.319-3.319c4.543-4.542 4.543-11.905.001-16.446z" style="" fill="#ffd15b" data-original="#ffd15b"></path><path d="M170 256.446a22.938 22.938 0 0 1 7.826-3.902l1.762-1.762c4.542-4.542 4.542-11.905 0-16.446l-17.495-17.495c-4.542-4.542-11.905-4.542-16.446 0l-17.495 17.495a11.53 11.53 0 0 0-2.621 4.079" style="stroke-width:15;stroke-linecap:round;stroke-linejoin:round;stroke-miterlimit:10;" fill="none" stroke="#000000" stroke-width="15" stroke-linecap="round" stroke-linejoin="round" stroke-miterlimit="10" data-original="#000000"></path><path d="M361.393 308.911h101.213c.254-1.37.394-2.78.394-4.223 0-4.191-1.126-8.116-3.085-11.5a22.888 22.888 0 0 0 3.085-11.5c0-12.703-10.297-23-23-23a22.89 22.89 0 0 0-14 4.757c-3.878-2.981-8.73-4.757-14-4.757s-10.122 1.776-14 4.757a22.89 22.89 0 0 0-14-4.757c-12.703 0-23 10.297-23 23 0 4.191 1.126 8.116 3.085 11.5a22.888 22.888 0 0 0-3.085 11.5c0 1.444.139 2.854.393 4.223z" style="" fill="#fe7d43" data-original="#fe7d43"></path><path d="M463 281.689c0-12.703-10.297-23-23-23-3.579 0-6.957.835-9.976 2.295 7.68 3.725 12.976 11.596 12.976 20.705 0 4.191-1.126 8.116-3.085 11.5a22.888 22.888 0 0 1 3.085 11.5 23.05 23.05 0 0 1-.394 4.223h20c.254-1.37.394-2.78.394-4.223 0-4.191-1.126-8.116-3.085-11.5a22.888 22.888 0 0 0 3.085-11.5z" style="" fill="#fd6930" data-original="#fd6930"></path><path d="M462.747 307.912c.15-1.055.253-2.126.253-3.223 0-4.191-1.126-8.116-3.085-11.5a22.888 22.888 0 0 0 3.085-11.5c0-12.703-10.297-23-23-23a22.89 22.89 0 0 0-14 4.757c-3.878-2.981-8.73-4.757-14-4.757s-10.122 1.776-14 4.757a22.89 22.89 0 0 0-14-4.757c-2.679 0-5.248.463-7.639 1.305" style="stroke-width:15;stroke-linecap:round;stroke-linejoin:round;stroke-miterlimit:10;" fill="none" stroke="#000000" stroke-width="15" stroke-linecap="round" stroke-linejoin="round" stroke-miterlimit="10" data-original="#000000"></path><path d="M135.925 308.911h96.15A22.89 22.89 0 0 0 235 297.688c0-4.191-1.126-8.116-3.085-11.5a22.888 22.888 0 0 0 3.085-11.5c0-12.703-10.297-23-23-23a22.892 22.892 0 0 0-14 4.757 22.892 22.892 0 0 0-14-4.757 22.892 22.892 0 0 0-14 4.757 22.892 22.892 0 0 0-14-4.757c-12.703 0-23 10.297-23 23 0 4.191 1.126 8.116 3.085 11.5a22.888 22.888 0 0 0-3.085 11.5 22.89 22.89 0 0 0 2.925 11.223z" style="" fill="#d77f4a" data-original="#d77f4a"></path><path d="M235 274.689c0-12.703-10.297-23-23-23a22.854 22.854 0 0 0-11.982 3.388c6.587 4.045 10.982 11.314 10.982 19.612 0 4.191-1.126 8.116-3.085 11.5a22.888 22.888 0 0 1 3.085 11.5c0 4.076-1.065 7.902-2.925 11.223h24A22.89 22.89 0 0 0 235 297.689c0-4.191-1.126-8.116-3.085-11.5a22.878 22.878 0 0 0 3.085-11.5z" style="" fill="#c86d36" data-original="#c86d36"></path><path d="M234.442 279.689a22.94 22.94 0 0 0 .558-5c0-12.703-10.297-23-23-23a22.892 22.892 0 0 0-14 4.757c-3.878-2.981-8.731-4.757-14-4.757s-10.122 1.776-14 4.757a22.892 22.892 0 0 0-14-4.757 22.884 22.884 0 0 0-12.243 3.533" style="stroke-width:15;stroke-linecap:round;stroke-linejoin:round;stroke-miterlimit:10;" fill="none" stroke="#000000" stroke-width="15" stroke-linecap="round" stroke-linejoin="round" stroke-miterlimit="10" data-original="#000000"></path><path d="M282.765 308.911h90.469a22.91 22.91 0 0 0 5.765-15.223c0-4.191-1.126-8.116-3.085-11.5a22.888 22.888 0 0 0 3.085-11.5c0-12.703-10.297-23-23-23a22.89 22.89 0 0 0-14 4.757c-3.878-2.981-8.73-4.757-14-4.757s-10.122 1.776-14 4.757a22.892 22.892 0 0 0-14-4.757c-12.703 0-23 10.297-23 23 0 4.191 1.126 8.116 3.085 11.5a22.888 22.888 0 0 0-3.085 11.5 22.913 22.913 0 0 0 5.766 15.223z" style="" fill="#d77f4a" data-original="#d77f4a"></path><path d="M379 270.689c0-12.703-10.297-23-23-23a22.856 22.856 0 0 0-13.095 4.117c5.967 4.155 9.875 11.061 9.875 18.883 0 4.191-1.126 8.116-3.085 11.5a22.888 22.888 0 0 1 3.085 11.5 22.91 22.91 0 0 1-5.765 15.223h26.221a22.91 22.91 0 0 0 5.765-15.223c0-4.191-1.126-8.116-3.085-11.5a22.897 22.897 0 0 0 3.084-11.5z" style="" fill="#c86d36" data-original="#c86d36"></path><path d="M374.043 307.912c3.092-3.916 4.957-8.846 4.957-14.223 0-4.191-1.126-8.116-3.085-11.5a22.888 22.888 0 0 0 3.085-11.5c0-12.703-10.297-23-23-23a22.89 22.89 0 0 0-14 4.757c-3.878-2.981-8.73-4.757-14-4.757s-10.122 1.776-14 4.757a22.892 22.892 0 0 0-14-4.757c-12.703 0-23 10.297-23 23 0 4.191 1.126 8.116 3.085 11.5a22.888 22.888 0 0 0-3.085 11.5c0 5.377 1.864 10.307 4.957 14.223" style="stroke-width:15;stroke-linecap:round;stroke-linejoin:round;stroke-miterlimit:10;" fill="none" stroke="#000000" stroke-width="15" stroke-linecap="round" stroke-linejoin="round" stroke-miterlimit="10" data-original="#000000"></path><path d="m260.076 308.911-15.428-26.723a5 5 0 0 0-4.33-2.5h-25.539a5 5 0 0 0-4.33 2.5l-15.428 26.723h65.055z" style="" fill="#ffe177" data-original="#ffe177"></path><path d="M244.648 282.189a5 5 0 0 0-4.33-2.5h-20.077a5 5 0 0 1 4.33 2.5L240 308.911h20.076l-15.428-26.722z" style="" fill="#ffd15b" data-original="#ffd15b"></path><path d="m259.499 307.912-14.851-25.723a5 5 0 0 0-4.33-2.5h-25.539a5 5 0 0 0-4.33 2.5l-14.851 25.723h63.901z" style="stroke-width:15;stroke-linecap:round;stroke-linejoin:round;stroke-miterlimit:10;" fill="none" stroke="#000000" stroke-width="15" stroke-linecap="round" stroke-linejoin="round" stroke-miterlimit="10" data-original="#000000"></path><path d="M53.646 308.911h90.207a28.41 28.41 0 0 0 1.896-10.223 28.36 28.36 0 0 0-5.269-16.5 28.36 28.36 0 0 0 5.269-16.5c0-15.74-12.76-28.5-28.5-28.5a28.378 28.378 0 0 0-18.5 6.83 28.378 28.378 0 0 0-18.5-6.83c-15.74 0-28.5 12.76-28.5 28.5a28.36 28.36 0 0 0 5.269 16.5 28.36 28.36 0 0 0-5.269 16.5 28.45 28.45 0 0 0 1.897 10.223z" style="" fill="#fe7d43" data-original="#fe7d43"></path><path d="M145.75 265.689c0-15.74-12.76-28.5-28.5-28.5a28.332 28.332 0 0 0-15.373 4.51c7.891 5.068 13.123 13.915 13.123 23.99a28.36 28.36 0 0 1-5.269 16.5 28.36 28.36 0 0 1 5.269 16.5c0 3.604-.676 7.048-1.896 10.223h30.75a28.41 28.41 0 0 0 1.896-10.223 28.36 28.36 0 0 0-5.269-16.5 28.36 28.36 0 0 0 5.269-16.5z" style="" fill="#fd6930" data-original="#fd6930"></path><path d="M144.213 307.912a28.406 28.406 0 0 0 1.537-9.223 28.36 28.36 0 0 0-5.269-16.5 28.36 28.36 0 0 0 5.269-16.5c0-15.74-12.76-28.5-28.5-28.5a28.378 28.378 0 0 0-18.5 6.83 28.378 28.378 0 0 0-18.5-6.83c-.414 0-.825.014-1.235.031M52.341 259.894a28.654 28.654 0 0 0-.591 5.794c0 3.655.704 7.14 1.96 10.349" style="stroke-width:15;stroke-linecap:round;stroke-linejoin:round;stroke-miterlimit:10;" fill="none" stroke="#000000" stroke-width="15" stroke-linecap="round" stroke-linejoin="round" stroke-miterlimit="10" data-original="#000000"></path><path d="M33.022 308.911h55.697l2.557-2.557a5 5 0 0 0 0-7.071l-26.87-26.87a5 5 0 0 0-7.071 0l-26.87 26.87a5 5 0 0 0 0 7.071l2.557 2.557z" style="" fill="#ffe177" data-original="#ffe177"></path><path d="m91.276 299.283-26.87-26.87a5 5 0 0 0-7.071 0l-6.964 6.964 19.906 19.906a5 5 0 0 1 0 7.071l-2.557 2.557h21l2.557-2.557a5.002 5.002 0 0 0-.001-7.071z" style="" fill="#ffd15b" data-original="#ffd15b"></path><path d="M32.022 307.912h57.696l1.557-1.557a5 5 0 0 0 0-7.071l-26.87-26.87a5 5 0 0 0-7.071 0l-26.87 26.87a5 5 0 0 0 0 7.071l1.558 1.557z" style="stroke-width:15;stroke-linecap:round;stroke-linejoin:round;stroke-miterlimit:10;" fill="none" stroke="#000000" stroke-width="15" stroke-linecap="round" stroke-linejoin="round" stroke-miterlimit="10" data-original="#000000"></path><path d="M504.494 313.105c.132-2.834-2.166-5.193-5.003-5.193H12.509c-2.837 0-5.136 2.359-5.003 5.193 2.549 54.604 45.089 98.751 98.995 103.829v25.755c0 5.523 4.477 10 10 10h279c5.523 0 10-4.477 10-10v-25.755c53.905-5.078 96.444-49.225 98.993-103.829z" style="" fill="#dff6fd" data-original="#dff6fd"></path><path d="M499.491 307.912h-50.5c2.837 0 5.136 2.359 5.003 5.193-2.549 54.604-45.089 98.751-98.995 103.829v25.755c0 5.523-4.477 10-10 10h50.5c5.523 0 10-4.477 10-10v-25.755c53.906-5.078 96.445-49.225 98.995-103.829.133-2.834-2.166-5.193-5.003-5.193z" style="" fill="#c8effe" data-original="#c8effe"></path><path d="M106.5 416.934v25.755c0 5.523 4.477 10 10 10h279c5.523 0 10-4.477 10-10v-25.755h-299z" style="" fill="#c8effe" data-original="#c8effe"></path><path d="M345.002 452.689H395.5c5.523 0 10-4.477 10-10v-25.755H355v25.755c0 5.522-4.476 9.998-9.998 10z" style="" fill="#99e6fc" data-original="#99e6fc"></path><path d="M305 307.912H12.509c-2.837 0-5.136 2.359-5.003 5.193 2.549 54.604 45.089 98.751 98.995 103.829v25.755c0 5.523 4.477 10 10 10h279c5.523 0 10-4.477 10-10v-25.755c53.906-5.078 96.445-49.225 98.995-103.829.132-2.834-2.166-5.193-5.003-5.193H340M103 271.689h7M204 221.689h7M307 276.689h7M344 282.689h7M384 235.689h7M292 204.689h7M313 222.739l4.95 4.95M318 115.689h7M172 281.689h7M423 287.689h7M431.05 189.689l4.95 4.95M226.05 146.689l4.95 4.95M116 174.689l4.95-4.95" style="stroke-width:15;stroke-linecap:round;stroke-linejoin:round;stroke-miterlimit:10;" fill="none" stroke="#000000" stroke-width="15" stroke-linecap="round" stroke-linejoin="round" stroke-miterlimit="10" data-original="#000000"></path><path d="m416.81 127.592-26.721 26.721c-1.694 1.694-4.593.817-5.063-1.533l-5.657-28.284a3 3 0 0 1 .82-2.71l26.721-26.721c1.694-1.694 4.593-.817 5.063 1.533l5.657 28.284a3 3 0 0 1-.82 2.71z" style="" fill="#fe7d43" data-original="#fe7d43"></path><path d="m416.81 127.592-26.721 26.721c-1.694 1.694-4.593.817-5.063-1.533l-5.657-28.284a3 3 0 0 1 .82-2.71l26.721-26.721c1.694-1.694 4.593-.817 5.063 1.533l5.657 28.284a3 3 0 0 1-.82 2.71z" style="stroke-width:15;stroke-linecap:round;stroke-linejoin:round;stroke-miterlimit:10;" fill="none" stroke="#000000" stroke-width="15" stroke-linecap="round" stroke-linejoin="round" stroke-miterlimit="10" data-original="#000000"></path><path d="m74.121 189.033-19.775 19.775c-1.694 1.694-4.593.817-5.063-1.533l-4.113-20.566a3 3 0 0 1 .82-2.71l19.775-19.775c1.694-1.694 4.593-.817 5.063 1.533l4.113 20.566a2.997 2.997 0 0 1-.82 2.71z" style="" fill="#fe7d43" data-original="#fe7d43"></path><path d="m74.121 189.033-19.775 19.775c-1.694 1.694-4.593.817-5.063-1.533l-4.113-20.566a3 3 0 0 1 .82-2.71l19.775-19.775c1.694-1.694 4.593-.817 5.063 1.533l4.113 20.566a2.997 2.997 0 0 1-.82 2.71z" style="stroke-width:15;stroke-linecap:round;stroke-linejoin:round;stroke-miterlimit:10;" fill="none" stroke="#000000" stroke-width="15" stroke-linecap="round" stroke-linejoin="round" stroke-miterlimit="10" data-original="#000000"></path><path d="m140.69 124.592 26.721 26.721c1.694 1.694 4.593.817 5.063-1.533l5.657-28.284a3 3 0 0 0-.82-2.71L150.59 92.065c-1.694-1.694-4.593-.817-5.063 1.533l-5.657 28.284a3 3 0 0 0 .82 2.71z" style="" fill="#bbec6c" data-original="#bbec6c"></path><path d="m140.69 124.592 26.721 26.721c1.694 1.694 4.593.817 5.063-1.533l5.657-28.284a3 3 0 0 0-.82-2.71L150.59 92.065c-1.694-1.694-4.593-.817-5.063 1.533l-5.657 28.284a3 3 0 0 0 .82 2.71z" style="stroke-width:15;stroke-linecap:round;stroke-linejoin:round;stroke-miterlimit:10;" fill="none" stroke="#000000" stroke-width="15" stroke-linecap="round" stroke-linejoin="round" stroke-miterlimit="10" data-original="#000000"></path><path d="m248.602 96.81-26.721-26.721c-1.694-1.694-.817-4.593 1.533-5.063l28.284-5.657a3 3 0 0 1 2.71.82l26.721 26.721c1.694 1.694.817 4.593-1.533 5.063l-28.284 5.657a3 3 0 0 1-2.71-.82z" style="" fill="#bbec6c" data-original="#bbec6c"></path><path d="m248.602 96.81-26.721-26.721c-1.694-1.694-.817-4.593 1.533-5.063l28.284-5.657a3 3 0 0 1 2.71.82l26.721 26.721c1.694 1.694.817 4.593-1.533 5.063l-28.284 5.657a3 3 0 0 1-2.71-.82zM68 341v17M115 341v17M162 341v17M209 341v17M256 341v17M303 341v17M350 341v17M397 341v17M444 341v17M168 416.934h-61.5M405.5 416.934H203" style="stroke-width:15;stroke-linecap:round;stroke-linejoin:round;stroke-miterlimit:10;" fill="none" stroke="#000000" stroke-width="15" stroke-linecap="round" stroke-linejoin="round" stroke-miterlimit="10" data-original="#000000"></path></g></svg>