<svg xmlns="http://www.w3.org/2000/svg" version="1.1" xmlns:xlink="http://www.w3.org/1999/xlink" width="100" height="100" x="0" y="0" viewBox="0 0 512 512" style="enable-background:new 0 0 512 512" xml:space="preserve" class=""><g><path d="M38.562 286.54h201.905v124.25H38.562z" style="" fill="#ffb272" data-original="#ffb272" class=""></path><path d="M38.562 286.54h30v124.25h-30z" style="" fill="#d38a54" data-original="#d38a54" class=""></path><path d="M271.53 286.54h201.905v124.25H271.53z" style="" fill="#ffb272" data-original="#ffb272" class=""></path><path d="M271.53 286.54h30v124.25h-30z" style="" fill="#d38a54" data-original="#d38a54" class=""></path><path d="M7.5 255.477h31.062v186.374H7.5zM240.468 255.477h31.062v186.374h-31.062zM473.436 255.477h31.062v186.374h-31.062z" style="" fill="#fd4755" data-original="#fd4755"></path><path d="M193.874 286.54H85.156l-11.05-37.085a31.002 31.002 0 0 1 4.986-27.555l12.292-16.249a31.001 31.001 0 0 1 24.723-12.298h46.816a30.998 30.998 0 0 1 24.723 12.298l12.292 16.249a31.002 31.002 0 0 1 4.986 27.555l-11.05 37.085z" style="" fill="#fed402" data-original="#fed402"></path><path d="m109.092 221.9 12.292-16.249a31.001 31.001 0 0 1 24.723-12.298h-30a30.998 30.998 0 0 0-24.723 12.298L79.092 221.9a31.002 31.002 0 0 0-4.986 27.555l11.05 37.085h30l-11.05-37.085a31.001 31.001 0 0 1 4.986-27.555zM160.046 193.353h-41.062v-10.531c0-11.339 9.192-20.531 20.531-20.531 11.339 0 20.531 9.192 20.531 20.531v10.531zM393.014 224.415h-41.062v-10.531c0-11.339 9.192-20.531 20.531-20.531 11.339 0 20.531 9.192 20.531 20.531v10.531z" style="" fill="#fac600" data-original="#fac600"></path><path d="M426.842 286.54H318.124l-10.872-43.487c-2.367-9.467 4.794-18.638 14.552-18.638h101.357c9.759 0 16.919 9.171 14.552 18.638l-10.871 43.487z" style="" fill="#fed402" data-original="#fed402"></path><path d="M351.804 224.415h-30c-9.759 0-16.919 9.171-14.552 18.638l10.872 43.487h30l-10.872-43.487c-2.367-9.467 4.794-18.638 14.552-18.638z" style="" fill="#fac600" data-original="#fac600"></path><path d="m373.963 150.59-31.483-8.436a7 7 0 0 1-4.95-8.573l8.436-31.483a7 7 0 0 1 8.573-4.95l31.483 8.436a7 7 0 0 1 4.95 8.573l-8.436 31.483a6.998 6.998 0 0 1-8.573 4.95z" style="" fill="#adb9c8" data-original="#adb9c8"></path><path d="M367.481 142.155a7 7 0 0 1-4.95-8.573l8.436-31.483a6.91 6.91 0 0 1 .156-.506L354.54 97.15a6.999 6.999 0 0 0-8.573 4.95l-8.436 31.483a6.999 6.999 0 0 0 4.95 8.573l31.483 8.436a7 7 0 0 0 8.417-4.443l-14.9-3.994z" style="" fill="#92a2b5" data-original="#92a2b5"></path><path d="m337.729 132.842-120.016-32.158c-8.285-2.22-13.202-10.736-10.982-19.022 2.22-8.285 10.736-13.202 19.022-10.982l120.016 32.158-8.04 30.004z" style="" fill="#ffb272" data-original="#ffb272" class=""></path><path d="M247.713 100.684c-8.285-2.22-13.202-10.736-10.982-19.022a15.46 15.46 0 0 1 4.018-6.964l-14.996-4.018c-8.285-2.22-16.802 2.697-19.022 10.982s2.697 16.802 10.982 19.022l120.016 32.158 2.01-7.5-92.026-24.658z" style="" fill="#d38a54" data-original="#d38a54" class=""></path><path d="M95.586 304.736h87.858v87.858H95.586z" style="" transform="rotate(45.001 139.52 348.664)" fill="#af6a3a" data-original="#af6a3a" class=""></path><path d="M328.554 304.736h87.858v87.858h-87.858z" style="" transform="rotate(45.001 372.489 348.662)" fill="#af6a3a" data-original="#af6a3a" class=""></path><circle cx="139.515" cy="348.664" r="15.531" style="" fill="#8c5835" data-original="#8c5835"></circle><circle cx="372.483" cy="348.664" r="15.531" style="" fill="#8c5835" data-original="#8c5835"></circle><path d="M210.219 410.79h30.25V286.539H38.558V410.79h138.971M271.53 286.54h201.905v124.25H271.53z" style="stroke-width:15;stroke-linecap:round;stroke-linejoin:round;stroke-miterlimit:10;" fill="none" stroke="#000000" stroke-width="15" stroke-linecap="round" stroke-linejoin="round" stroke-miterlimit="10" data-original="#000000" class=""></path><path d="M7.5 255.477h31.062v186.374H7.5zM240.468 255.477h31.062v186.374h-31.062zM504.5 365.01v76.84h-31.06V255.479h31.06v76.84M193.874 286.54H85.156l-11.05-37.085a31.002 31.002 0 0 1 4.986-27.555l12.292-16.249a31.001 31.001 0 0 1 24.723-12.298h46.816a30.998 30.998 0 0 1 24.723 12.298l12.292 16.249a31.002 31.002 0 0 1 4.986 27.555l-11.05 37.085zM160.046 193.353h-41.062v-10.531c0-11.339 9.192-20.531 20.531-20.531h0c11.339 0 20.531 9.192 20.531 20.531v10.531zM393.014 224.415h-41.062v-10.531c0-11.339 9.192-20.531 20.531-20.531h0c11.339 0 20.531 9.192 20.531 20.531v10.531zM72.833 239.946h133.365M426.842 286.54H318.124l-10.872-43.487c-2.367-9.467 4.794-18.638 14.552-18.638h101.357c9.759 0 16.919 9.171 14.552 18.638l-10.871 43.487zM373.963 150.59l-31.483-8.436a7 7 0 0 1-4.95-8.573l8.436-31.483a7 7 0 0 1 8.573-4.95l31.483 8.436a7 7 0 0 1 4.95 8.573l-8.436 31.483a6.998 6.998 0 0 1-8.573 4.95z" style="stroke-width:15;stroke-linecap:round;stroke-linejoin:round;stroke-miterlimit:10;" fill="none" stroke="#000000" stroke-width="15" stroke-linecap="round" stroke-linejoin="round" stroke-miterlimit="10" data-original="#000000" class=""></path><path d="m307.469 92.579 38.3 10.26-8.04 30-120.02-32.15c-8.28-2.22-13.2-10.74-10.98-19.03 1.86-6.93 8.14-11.51 14.99-11.51 1.33 0 2.68.17 4.03.53l50.14 13.44" style="stroke-width:15;stroke-linecap:round;stroke-linejoin:round;stroke-miterlimit:10;" fill="none" stroke="#000000" stroke-width="15" stroke-linecap="round" stroke-linejoin="round" stroke-miterlimit="10" data-original="#000000" class=""></path><circle cx="139.515" cy="348.664" r="15.531" style="stroke-width:15;stroke-linecap:round;stroke-linejoin:round;stroke-miterlimit:10;" fill="none" stroke="#000000" stroke-width="15" stroke-linecap="round" stroke-linejoin="round" stroke-miterlimit="10" data-original="#000000" class=""></circle><path d="M95.586 304.736h87.858v87.858H95.586z" style="stroke-width:15;stroke-linecap:round;stroke-linejoin:round;stroke-miterlimit:10;" transform="rotate(45.001 139.52 348.664)" fill="none" stroke="#000000" stroke-width="15" stroke-linecap="round" stroke-linejoin="round" stroke-miterlimit="10" data-original="#000000" class=""></path><path d="M69.625 317.602h0M69.625 379.727h0M209.405 317.602h0M209.405 379.727h0" style="stroke-width:15;stroke-linecap:round;stroke-linejoin:round;stroke-miterlimit:10;" fill="none" stroke="#000000" stroke-width="15" stroke-linecap="round" stroke-linejoin="round" stroke-miterlimit="10" data-original="#000000" class=""></path><circle cx="372.483" cy="348.664" r="15.531" style="stroke-width:15;stroke-linecap:round;stroke-linejoin:round;stroke-miterlimit:10;" fill="none" stroke="#000000" stroke-width="15" stroke-linecap="round" stroke-linejoin="round" stroke-miterlimit="10" data-original="#000000" class=""></circle><path d="M328.554 304.736h87.858v87.858h-87.858z" style="stroke-width:15;stroke-linecap:round;stroke-linejoin:round;stroke-miterlimit:10;" transform="rotate(45.001 372.489 348.662)" fill="none" stroke="#000000" stroke-width="15" stroke-linecap="round" stroke-linejoin="round" stroke-miterlimit="10" data-original="#000000" class=""></path><path d="M302.593 317.602h0M302.593 379.727h0M442.373 317.602h0M442.373 379.727h0" style="stroke-width:15;stroke-linecap:round;stroke-linejoin:round;stroke-miterlimit:10;" fill="none" stroke="#000000" stroke-width="15" stroke-linecap="round" stroke-linejoin="round" stroke-miterlimit="10" data-original="#000000" class=""></path></g></svg>