<svg xmlns="http://www.w3.org/2000/svg" version="1.1" xmlns:xlink="http://www.w3.org/1999/xlink" width="100" height="100" x="0" y="0" viewBox="0 0 512 512" style="enable-background:new 0 0 512 512" xml:space="preserve" class=""><g><clipPath id="a"><path d="M247.66 192.11h32.6v68.98h-32.6z" fill="#000000" opacity="1" data-original="#000000"></path></clipPath><clipPath id="b"><path d="M214 401.88s28.19 22.4 49 31.48c0 0 46.45-19.8 60.71-36.74 20.89 23.73 30.06 53.75 27.74 84.28l-169.3.1z" fill="#000000" opacity="1" data-original="#000000"></path></clipPath><clipPath id="c"><path d="M312.42 384.08h57.8v57.31h-57.8z" fill="#000000" opacity="1" data-original="#000000"></path></clipPath><clipPath id="d"><path d="M312.42 441.39h57.8v57.31h-57.8z" fill="#000000" opacity="1" data-original="#000000"></path></clipPath><clipPath id="e"><path d="M254.62 384.08h57.8v57.31h-57.8z" fill="#000000" opacity="1" data-original="#000000"></path></clipPath><clipPath id="f"><path d="M254.62 441.39h57.8v57.31h-57.8z" fill="#000000" opacity="1" data-original="#000000"></path></clipPath><clipPath id="g"><path d="M196.82 384.08h57.8v57.31h-57.8z" fill="#000000" opacity="1" data-original="#000000"></path></clipPath><clipPath id="h"><path d="M196.82 441.39h57.8v57.31h-57.8z" fill="#000000" opacity="1" data-original="#000000"></path></clipPath><clipPath id="i"><path d="M139.02 384.08h57.8v57.31h-57.8z" fill="#000000" opacity="1" data-original="#000000"></path></clipPath><clipPath id="j"><path d="M139.02 441.39h57.8v57.31h-57.8z" fill="#000000" opacity="1" data-original="#000000"></path></clipPath><path fill="#2d1929" d="M303.7 188.93c-29.81-17.29-96.06-70.64-96.06-70.64-2.92 0-19.47 18-21.07 34.43s13 13.4-4.91 30.49-10 44.91-.16 54.22-29.64 43.57-26.18 62.75 18.07 57.72 69.31 39.44 52.22-52.37 52.22-52.37l36.39-19.76s20.26-61.26-9.54-78.56z" opacity="1" data-original="#2d1929" class=""></path><g clip-path="url(#a)"><path fill="#f5b493" d="M247.66 192.11h32.6v68.98h-32.6z" opacity="1" data-original="#f5b493" class=""></path><path fill="#eba284" d="M251.42 210.34s9.06 23 31.69 22.36v-16.93z" opacity="1" data-original="#eba284" class=""></path></g><circle cx="207.64" cy="109.53" r="21.08" fill="#2d1929" opacity="1" data-original="#2d1929" class=""></circle><path fill="#f5b493" d="M311.39 171.12c-1.06-8.53-3.11-13.71-3.62-19.29-1.27-13.79.24-24.31-9.61-33.7a47.88 47.88 0 0 0-10.42-9.07c-14.18-10.37-37.71-10.66-53.6 1.26-18.3 13.73-18.08 37.35-18 43.21.26 27.39 19.29 45.77 27.59 52.53a70.42 70.42 0 0 0 15 11c6.1 3.23 22.42 11.9 34.18 4.32 3.08-2 7.3-6.95 12.27-18.58 6.41-15.08 7.28-23.15 6.21-31.68z" opacity="1" data-original="#f5b493" class=""></path><path fill="#2d1929" d="M287.8 182.77c2.82-1.58 4.27-3.17 4.3-4.74.08-3.63-7.13-4.35-9.48-17.13a.5.5 0 0 1 1-.18c2.3 12.54 9.58 13 9.49 17.33 0 1.95-1.66 3.83-4.81 5.6a.5.5 0 0 1-.5-.88zM298.06 167c-2 .17-3.84-2.21-4.1-5.31s1.16-5.75 3.16-5.92 3.85 2.21 4.11 5.31-1.16 5.76-3.17 5.92zM266.83 169.62c-2 .17-3.84-2.21-4.1-5.31s1.16-5.75 3.16-5.92 3.84 2.21 4.1 5.31-1.15 5.75-3.16 5.92zM285.82 145.72a1 1 0 0 1-.65-1.76c.08-.07 8.19-6.9 17.39-1.65a1 1 0 0 1-1 1.74c-8-4.54-14.81 1.18-15.1 1.43a1 1 0 0 1-.64.24zM254.77 147.64a1 1 0 0 1-.66-1.75c8-7 17.29-1.86 17.38-1.8a1 1 0 1 1-1 1.74c-.33-.18-8.18-4.45-15.09 1.57a1 1 0 0 1-.63.24z" opacity="1" data-original="#2d1929" class=""></path><path fill="#f5b493" d="M258.51 241.54s-47 9-55.14 25.34 14.3 156.68 14.3 156.68h105s4.52-151.38 0-166.18-64.16-15.84-64.16-15.84z" opacity="1" data-original="#f5b493" class=""></path><path fill="#f5b493" d="M179.87 84s-66 89-64.18 116.47S212.19 308 212.19 308l35.47-62.48a288 288 0 0 1-91.29-51.16L198.79 99zM268.79 241.93a201.49 201.49 0 0 1 20.45-6.71c14.38-3.9 23.47-6.36 31.64-5 13.41 2.27 21.9 14.48 30.73 28.93C360.67 274 411 356.31 394.1 369c-2.06 1.54-4.65 1.69-7.69 1.35-34.94-4-66.59-66.26-71-75a84.15 84.15 0 0 1-46.62-53.42zM219.05 389.38 182.19 481h161.45a171.43 171.43 0 0 0-19.89-84.38z" opacity="1" data-original="#f5b493" class=""></path><path fill="#eba284" d="M256.27 386.39c19.76.65 67.15-7.47 67.15-7.47L320 370.5l-87.45-7.5-23.06 4 5 35.73 51.67 46.82L303.7 424s-29.31-1-40.9-11.24-26.29-27.03-6.53-26.37z" opacity="1" data-original="#eba284" class=""></path><path fill="#e73f46" d="m178.74 211.18-28.2 50.05 48.09 38.95s-3.29 17.7-2 27.91 11.07 25.25 11.07 25.25l1.77 13.7a240.28 240.28 0 0 0 113.93-5.36l3-46.51 11 20.17s36.4-2.31 52.21-13.84c0 0-41.5-80.53-59.62-91.64s-49.78 8-49.78 8c6.69 11.73 3.45 25.43-5.38 31.1-6.41 4.11-16.82 4.7-23.72-2a19.44 19.44 0 0 1-3.46-22.72 305.1 305.1 0 0 1-68.91-33.06z" opacity="1" data-original="#e73f46" class=""></path><path fill="#cc3745" d="M214 401.88s28.19 22.4 49 31.48c0 0 46.45-19.8 60.71-36.74 20.89 23.73 30.06 53.75 27.74 84.28l-169.3.1z" opacity="1" data-original="#cc3745" class=""></path><g fill="#fff" clip-path="url(#b)"><g clip-path="url(#c)"><ellipse cx="368.09" cy="426.02" rx="2.14" ry="5.03" fill="#ffffff" opacity="1" data-original="#ffffff"></ellipse><ellipse cx="339.18" cy="440.35" rx="2.14" ry="5.03" fill="#ffffff" opacity="1" data-original="#ffffff"></ellipse><ellipse cx="368.09" cy="397.36" rx="2.14" ry="5.03" fill="#ffffff" opacity="1" data-original="#ffffff"></ellipse><ellipse cx="339.18" cy="411.69" rx="2.14" ry="5.03" fill="#ffffff" opacity="1" data-original="#ffffff"></ellipse><ellipse cx="339.18" cy="383.04" rx="2.14" ry="5.03" fill="#ffffff" opacity="1" data-original="#ffffff"></ellipse></g><g clip-path="url(#d)"><ellipse cx="368.09" cy="483.33" rx="2.14" ry="5.03" fill="#ffffff" opacity="1" data-original="#ffffff"></ellipse><ellipse cx="339.18" cy="497.65" rx="2.14" ry="5.03" fill="#ffffff" opacity="1" data-original="#ffffff"></ellipse><ellipse cx="368.09" cy="454.67" rx="2.14" ry="5.03" fill="#ffffff" opacity="1" data-original="#ffffff"></ellipse><ellipse cx="339.18" cy="469" rx="2.14" ry="5.03" fill="#ffffff" opacity="1" data-original="#ffffff"></ellipse><ellipse cx="339.18" cy="440.35" rx="2.14" ry="5.03" fill="#ffffff" opacity="1" data-original="#ffffff"></ellipse></g><g clip-path="url(#e)"><ellipse cx="310.28" cy="426.02" rx="2.14" ry="5.03" fill="#ffffff" opacity="1" data-original="#ffffff"></ellipse><ellipse cx="281.38" cy="440.35" rx="2.14" ry="5.03" fill="#ffffff" opacity="1" data-original="#ffffff"></ellipse><ellipse cx="310.28" cy="397.36" rx="2.14" ry="5.03" fill="#ffffff" opacity="1" data-original="#ffffff"></ellipse><ellipse cx="281.38" cy="411.69" rx="2.14" ry="5.03" fill="#ffffff" opacity="1" data-original="#ffffff"></ellipse><ellipse cx="281.38" cy="383.04" rx="2.14" ry="5.03" fill="#ffffff" opacity="1" data-original="#ffffff"></ellipse></g><g clip-path="url(#f)"><ellipse cx="310.28" cy="483.33" rx="2.14" ry="5.03" fill="#ffffff" opacity="1" data-original="#ffffff"></ellipse><ellipse cx="281.38" cy="497.65" rx="2.14" ry="5.03" fill="#ffffff" opacity="1" data-original="#ffffff"></ellipse><ellipse cx="310.28" cy="454.67" rx="2.14" ry="5.03" fill="#ffffff" opacity="1" data-original="#ffffff"></ellipse><ellipse cx="281.38" cy="469" rx="2.14" ry="5.03" fill="#ffffff" opacity="1" data-original="#ffffff"></ellipse><ellipse cx="281.38" cy="440.35" rx="2.14" ry="5.03" fill="#ffffff" opacity="1" data-original="#ffffff"></ellipse></g><g clip-path="url(#g)"><ellipse cx="252.48" cy="426.02" rx="2.14" ry="5.03" fill="#ffffff" opacity="1" data-original="#ffffff"></ellipse><ellipse cx="223.58" cy="440.35" rx="2.14" ry="5.03" fill="#ffffff" opacity="1" data-original="#ffffff"></ellipse><ellipse cx="252.48" cy="397.36" rx="2.14" ry="5.03" fill="#ffffff" opacity="1" data-original="#ffffff"></ellipse><ellipse cx="223.58" cy="411.69" rx="2.14" ry="5.03" fill="#ffffff" opacity="1" data-original="#ffffff"></ellipse><ellipse cx="223.58" cy="383.04" rx="2.14" ry="5.03" fill="#ffffff" opacity="1" data-original="#ffffff"></ellipse></g><g clip-path="url(#h)"><ellipse cx="252.48" cy="483.33" rx="2.14" ry="5.03" fill="#ffffff" opacity="1" data-original="#ffffff"></ellipse><ellipse cx="223.58" cy="497.65" rx="2.14" ry="5.03" fill="#ffffff" opacity="1" data-original="#ffffff"></ellipse><ellipse cx="252.48" cy="454.67" rx="2.14" ry="5.03" fill="#ffffff" opacity="1" data-original="#ffffff"></ellipse><ellipse cx="223.58" cy="469" rx="2.14" ry="5.03" fill="#ffffff" opacity="1" data-original="#ffffff"></ellipse><ellipse cx="223.58" cy="440.35" rx="2.14" ry="5.03" fill="#ffffff" opacity="1" data-original="#ffffff"></ellipse></g><g clip-path="url(#i)"><ellipse cx="194.68" cy="426.02" rx="2.14" ry="5.03" fill="#ffffff" opacity="1" data-original="#ffffff"></ellipse><ellipse cx="165.78" cy="440.35" rx="2.14" ry="5.03" fill="#ffffff" opacity="1" data-original="#ffffff"></ellipse><ellipse cx="194.68" cy="397.36" rx="2.14" ry="5.03" fill="#ffffff" opacity="1" data-original="#ffffff"></ellipse><ellipse cx="165.78" cy="411.69" rx="2.14" ry="5.03" fill="#ffffff" opacity="1" data-original="#ffffff"></ellipse><ellipse cx="165.78" cy="383.04" rx="2.14" ry="5.03" fill="#ffffff" opacity="1" data-original="#ffffff"></ellipse></g><g clip-path="url(#j)"><ellipse cx="194.68" cy="483.33" rx="2.14" ry="5.03" fill="#ffffff" opacity="1" data-original="#ffffff"></ellipse><ellipse cx="165.78" cy="497.65" rx="2.14" ry="5.03" fill="#ffffff" opacity="1" data-original="#ffffff"></ellipse><ellipse cx="194.68" cy="454.67" rx="2.14" ry="5.03" fill="#ffffff" opacity="1" data-original="#ffffff"></ellipse><ellipse cx="165.78" cy="469" rx="2.14" ry="5.03" fill="#ffffff" opacity="1" data-original="#ffffff"></ellipse><ellipse cx="165.78" cy="440.35" rx="2.14" ry="5.03" fill="#ffffff" opacity="1" data-original="#ffffff"></ellipse></g></g><path fill="#d7981a" d="M208.2 416.36s31.88 25.72 54.93 32.77c0 0 52.45-17.2 71.55-37.87 0 0-6.92-11.94-10.93-14.64L263 433.36l-49-31.48z" opacity="1" data-original="#d7981a" class=""></path><path fill="#e73f46" d="M251.36 427.51 240.79 481h58.62l-13-60.63s-.65-1-5.35 0-15.56 7.31-15.56 7.31-12.34-5.28-14.14-.17z" opacity="1" data-original="#e73f46" class=""></path><path fill="#cc3745" d="M265.49 427.68s-6.59 47.47-5.11 49.77 8.57-47.92 9.72-48.08 5.6 15 8.73 15.31-4.44-21.68-4.44-21.68z" opacity="1" data-original="#cc3745" class=""></path><path fill="#d7981a" d="M233.32 239c-2.54 18.6 4 35.15 15.47 41a30 30 0 0 0 15.21 3.13c33.64-2.14 33.38-41 28.64-51.29a35.22 35.22 0 0 0-12.34 6c4 15.83-1.29 30.76-10.16 32.09-18.2 2.71-24.87-14-22.4-25.69zM190.61 218.45l-25.8 54.34-14.27-11.56s21.16-40 28.2-50.05z" opacity="1" data-original="#d7981a" class=""></path><path fill="#cc3745" d="M198.63 300.18s14.82-31.65 19.76-39.09-14.49 45.26-14.16 63.71 15.15 23.38 24.7 23.05 0 7.91 7.58 13.18 67.19 10.46 67.19 10.46-66.56 5.51-94.21-4.49l-1.77-13.7s-20.12-11.04-9.09-53.12z" opacity="1" data-original="#cc3745" class=""></path><path fill="#f5b493" d="M323.59 339.47c-16.59 1.59-33.08 2.95-75.32 7.23q.93 11.48 1.87 23a396.22 396.22 0 0 0 88.45 9.66c52.4-.29 57.34-11.22 58.52-13.95 3.42-7.94-.65-19.31-7.62-25.6-7.69-6.98-16.02-5.13-65.9-.34z" opacity="1" data-original="#f5b493" class=""></path><path fill="#eba284" d="M386.2 323.81s-16.47 13.67-26 14.16 18.16 4.95 28.16 13-28.67-10.7-46.78-13.59l-3.64-4.84 26-6.27z" opacity="1" data-original="#eba284" class=""></path><path fill="#cc3745" d="M326.42 315.17s-14.82-48.67-8.89-51 15.63 63.3 15.63 63.3z" opacity="1" data-original="#cc3745" class=""></path><path fill="#2d1929" d="M266.36 109.89s.69 41.54-42.08 54.12c0 0 7.08 28.53 23.38 45.56 0 0-28-5.32-35.47-22.12s-5.45-63.23 3.92-79.54 46.59-12.35 46.59-12.35a47.44 47.44 0 0 1 41 11.53c18.77 17.13 4.07 44.74 4.07 44.74s-9.91-47.13-41.41-41.94z" opacity="1" data-original="#2d1929" class=""></path><path fill="#f5b493" d="M235.79 162.51c-3-7.49-10.48-11.54-16.64-9s-8.71 10.58-5.68 18.06 10.47 11.55 16.63 9.06 8.71-10.63 5.69-18.12z" opacity="1" data-original="#f5b493" class=""></path><path fill="#2d1929" d="M230.67 173.56s-4.18-.61-4.56-4.62c-.23-2.44 2.71-3.44 4-3.77-.88-1.8-3.91-7.37-8.12-7.13-4 .19-3.87 4.73-3.86 4.92a.5.5 0 0 1-1 0c-.08-2 .82-5.77 4.82-6 5.64-.26 9.19 8 9.34 8.3a.5.5 0 0 1-.38.69s-4.06.66-3.85 2.82c.3 3.22 3.66 3.72 3.69 3.72a.5.5 0 0 1-.08 1.07z" opacity="1" data-original="#2d1929" class=""></path><path fill="#d7981a" d="M333.16 327.49s32.78-4.5 49.42-19.33a82.65 82.65 0 0 1 7.08 13.34 75.44 75.44 0 0 1-52.21 13.84z" opacity="1" data-original="#d7981a" class=""></path><path fill="#eba284" d="M180.18 58.72s7.9-12.5 14.8-13.58c7.58-1.18 14.69 7.72 13.8 9.67-.22.49-.95.59-1.82.7-4.85.63-7.49-2.91-10.14-2.85-2.37.05-5.45 3-8.95 14.72z" opacity="1" data-original="#eba284" class=""></path><path fill="#eba284" d="M201.73 65.86c1.69-3.76 1-7.18 3.49-9.52.5-.47 1.95-1.82 3.56-1.53a3 3 0 0 1 1 .38c2.15 1.42-.25 10.67-1 13.57-3.83 14.86-4.22 16.86-6.61 17.94a7.75 7.75 0 0 1-8.4-1.49c-3.25-3.46-.66-9.72-.53-10 2.22-5.21 6.13-4.1 8.49-9.35z" opacity="1" data-original="#eba284" class=""></path><path fill="#f5b493" d="M179.13 88.45s-5.52-28.58-5.22-34.72S183 32 186.57 31s-2.84 17.82-1.57 24.88 15.35 18.34 19 25.46-6.2 20-6.2 20z" opacity="1" data-original="#f5b493" class=""></path><path fill="#eba284" d="M229.67 331.24s-14.75-1-19.68 4c-5.41 5.43-2.41 16.41-.31 16.84.53.11 1-.41 1.65-1.05 3.35-3.55 2-7.78 3.65-9.88 1.44-1.89 5.64-2.65 17.18 1.42z" opacity="1" data-original="#eba284" class=""></path><path fill="#eba284" d="M222.77 352.86c-4-.85-6.37-3.44-9.75-2.78-.67.13-2.62.51-3.34 2a3.13 3.13 0 0 0-.27 1c-.12 2.57 8.77 6.08 11.56 7.19 14.27 5.64 16.11 6.5 18.4 5.2a7.74 7.74 0 0 0 3.73-7.66c-.88-4.67-7.47-6.26-7.78-6.33-5.51-1.24-6.91 2.57-12.55 1.38z" opacity="1" data-original="#eba284" class=""></path><path fill="#f5b493" d="M254.34 347.88s-19.87-21.28-25-24.65-22.93-5.49-25.8-3.12 16.06 8.17 21 13.32 5.8 23.2 9.4 30.35 19.81 6.75 19.81 6.75z" opacity="1" data-original="#f5b493" class=""></path><path fill="#eba284" d="M156.37 194.36s-20 4.82-30.29 3.94 8.34 11.44 30.29-3.94z" opacity="1" data-original="#eba284" class=""></path><path fill="#ffffff" d="m275.35 192.44 18.58-2.69s-1.33 8.55-7.5 10-11.08-7.31-11.08-7.31z" opacity="1" data-original="#ffffff"></path><circle cx="170.27" cy="356.49" r="6.51" fill="#86ebf9" opacity="1" data-original="#86ebf9"></circle><circle cx="356.62" cy="156.91" r="4.79" fill="#86ebf9" opacity="1" data-original="#86ebf9"></circle><circle cx="125.46" cy="109.35" r="9.8" fill="#86ebf9" opacity="1" data-original="#86ebf9"></circle><circle cx="377.13" cy="227.11" r="8.23" fill="#917eec" opacity="1" data-original="#917eec"></circle><circle cx="304.69" cy="63.3" r="7.09" fill="#917eec" opacity="1" data-original="#917eec"></circle><circle cx="122.61" cy="286.62" r="6.95" fill="#917eec" opacity="1" data-original="#917eec"></circle><g fill="#d7981a"><rect width="37.24" height="3.63" x="169.21" y="91.05" rx="1.82" fill="#d7981a" opacity="1" data-original="#d7981a" class=""></rect><rect width="37.24" height="3.63" x="237.4" y="357.17" rx="1.82" transform="rotate(-64.8 255.99 358.92)" fill="#d7981a" opacity="1" data-original="#d7981a" class=""></rect><rect width="37.24" height="3.63" x="250.17" y="356.18" rx="1.82" transform="rotate(-75.7 268.706 357.973)" fill="#d7981a" opacity="1" data-original="#d7981a" class=""></rect><rect width="37.24" height="3.63" x="166.13" y="99.51" rx="1.82" transform="rotate(11.76 184.38 101.118)" fill="#d7981a" opacity="1" data-original="#d7981a" class=""></rect><path d="M207.55 119.28a1 1 0 0 1-.9-1.08 1 1 0 0 1 1.08-.91c25.2 2.27 64.4 4.58 69.08 1.63 4.31-2.71-.06-16-3.82-23.8a1 1 0 0 1 1.8-.87c1.08 2.22 10.31 21.82 3.09 26.37-6.68 4.2-62.48-.62-70.33-1.34z" fill="#d7981a" opacity="1" data-original="#d7981a" class=""></path><path d="M277.35 120.77a1 1 0 0 1-.83-.44c-14.26-21.2-49.9-19.78-50.25-19.76a1 1 0 0 1-1.05-.95 1 1 0 0 1 .95-1 88.15 88.15 0 0 1 20.29 1.89c14.54 3.04 25.54 9.49 31.72 18.7a1 1 0 0 1-.83 1.56z" fill="#d7981a" opacity="1" data-original="#d7981a" class=""></path><ellipse cx="279.62" cy="122.47" rx="5.26" ry="8.4" transform="rotate(-18.74 280.166 122.388)" fill="#d7981a" opacity="1" data-original="#d7981a" class=""></ellipse></g><ellipse cx="279.62" cy="121.32" fill="#efbd42" rx="3.5" ry="5.57" transform="rotate(-25.84 279.657 121.297)" opacity="1" data-original="#efbd42"></ellipse><circle cx="227.61" cy="180.87" r="6.42" fill="#d7981a" opacity="1" data-original="#d7981a" class=""></circle><circle cx="228.71" cy="179.81" r="4.43" fill="#efbd42" opacity="1" data-original="#efbd42"></circle></g></svg>
