<svg xmlns="http://www.w3.org/2000/svg" version="1.1" xmlns:xlink="http://www.w3.org/1999/xlink" width="100" height="100" x="0" y="0" viewBox="0 0 64 64" style="enable-background:new 0 0 512 512" xml:space="preserve" class=""><g><g data-name="10-traditional"><path fill="#eb3542" d="M51.22 29.33 53 32l-4 2-2-3v-.02a2.328 2.328 0 0 0 .38-.08l2.19-.54a3.214 3.214 0 0 0 1.65-1.03z" opacity="1" data-original="#eb3542"></path><path fill="#f0f0f0" d="M51.22 29.33a3.214 3.214 0 0 1-1.65 1.03l-2.19.54a2.328 2.328 0 0 1-.38.08c-.13.01-.26.02-.4.02a6.237 6.237 0 0 1-4.27-1.69A32.137 32.137 0 0 0 38 21v-3l1-3-.88-3.54c.57-1.37 3.31-2.41 6.65-2.45l3.77 9.8a5.951 5.951 0 0 0 1.36 2.09l.34.34A5.993 5.993 0 0 1 52 25.49v1.75a3.277 3.277 0 0 1-.34 1.44 2.862 2.862 0 0 1-.44.65z" opacity="1" data-original="#f0f0f0" class=""></path><path fill="#5586cf" d="M46.46 56.33 47 61s-1 2-14 2h-2c-13 0-14-2-14-2l.54-4.67C20.57 58 25.23 58 32 58s11.43 0 14.46-1.67z" opacity="1" data-original="#5586cf"></path><path fill="#eb3542" d="M42.33 29.31A44.839 44.839 0 0 1 44 35l2.46 21.33C43.43 58 38.77 58 32 58s-11.43 0-14.46-1.67L20 35a44.839 44.839 0 0 1 1.67-5.69A32.137 32.137 0 0 1 26 21l-3 29h5v-3h2V21h8a32.137 32.137 0 0 1 4.33 8.31zM44.61 8.58l.16.43c-3.34.04-6.08 1.08-6.65 2.45L38 11l-1-7 5.45 2.33a4.042 4.042 0 0 1 2.16 2.25z" opacity="1" data-original="#eb3542"></path><path fill="#eb3542" d="M25.88 11.46 26 11h12l.12.46L39 15l-1 3H26l-1-3z" opacity="1" data-original="#eb3542"></path><path fill="#5586cf" d="M38 18v3H26v-3z" opacity="1" data-original="#5586cf"></path><path fill="#f0f0f0" d="m37 4 1 7H26l1-7 5 1z" opacity="1" data-original="#f0f0f0" class=""></path><path fill="#e4e4e4" d="M37 1v3l-5 1 1-3zM31 2l1 3-5-1V1z" opacity="1" data-original="#e4e4e4"></path><path fill="#5586cf" d="M30 21v26h-4V21z" opacity="1" data-original="#5586cf"></path><path fill="#456bba" d="M28 47v3h-5l3-29v26z" opacity="1" data-original="#456bba"></path><path fill="#eb3542" d="m27 4-1 7-.12.46c-.57-1.37-3.31-2.41-6.65-2.45l.16-.43a4.042 4.042 0 0 1 2.16-2.25z" opacity="1" data-original="#eb3542"></path><path fill="#f0f0f0" d="M12.78 29.33a2.862 2.862 0 0 1-.44-.65 3.277 3.277 0 0 1-.34-1.44v-1.75a5.993 5.993 0 0 1 1.76-4.25l.34-.34a5.951 5.951 0 0 0 1.36-2.09l3.77-9.8c3.34.04 6.08 1.08 6.65 2.45L25 15l1 3v3a32.137 32.137 0 0 0-4.33 8.31A6.237 6.237 0 0 1 17.4 31c-.14 0-.27-.01-.4-.02a2.328 2.328 0 0 1-.38-.08l-2.19-.54a3.214 3.214 0 0 1-1.65-1.03z" opacity="1" data-original="#f0f0f0" class=""></path><path fill="#eb3542" d="M17 30.98V31l-2 3-4-2 1.78-2.67a3.214 3.214 0 0 0 1.65 1.03l2.19.54a2.328 2.328 0 0 0 .38.08z" opacity="1" data-original="#eb3542"></path><path fill="#ffd45d" d="M31 62c-11.084 0-13.443-1.453-13.9-1.882L17 61s1 2 14 2h2c13 0 14-2 14-2l-.1-.882C46.443 60.547 44.084 62 33 62zM32 58c-6.77 0-11.43 0-14.46-1.67l-.118 1.02C18.384 57.923 21.458 59 31 59h2c9.542 0 12.616-1.077 13.578-1.65l-.118-1.02C43.43 58 38.77 58 32 58z" opacity="1" data-original="#ffd45d"></path><path fill="#c1c1c1" d="M27 1h10l-4 1-1 3-1-3z" opacity="1" data-original="#c1c1c1"></path><path fill="#adadad" d="M33 2h-2l1 3z" opacity="1" data-original="#adadad"></path><path fill="#d9d9d9" d="M49.177 27.546a4.452 4.452 0 0 1-4.612-2.416l-1.932-3.863A6.007 6.007 0 0 1 42 18.584v-2.239a10.038 10.038 0 0 0-.354-2.643l-1.455-3.871a3.6 3.6 0 0 0-2.071 1.629L39 15l-1 3v3a32.137 32.137 0 0 1 4.33 8.31A6.237 6.237 0 0 0 46.6 31c.14 0 .27-.01.4-.02a2.328 2.328 0 0 0 .38-.08l2.19-.54a3.214 3.214 0 0 0 1.65-1.03 2.862 2.862 0 0 0 .44-.65 3.277 3.277 0 0 0 .34-1.44v-1.307a4.43 4.43 0 0 1-2.823 1.613z" opacity="1" data-original="#d9d9d9"></path><path fill="#cd2e3a" d="m40.191 9.831-2-5.322L37 4l1 7 .12.46a3.6 3.6 0 0 1 2.071-1.629z" opacity="1" data-original="#cd2e3a"></path><path fill="#d9d9d9" d="M14.823 27.546a4.452 4.452 0 0 0 4.612-2.416l1.932-3.863A6.007 6.007 0 0 0 22 18.584v-2.239a10.038 10.038 0 0 1 .354-2.643l1.455-3.871a3.6 3.6 0 0 1 2.071 1.629L25 15l1 3v3a32.137 32.137 0 0 0-4.33 8.31A6.237 6.237 0 0 1 17.4 31c-.14 0-.27-.01-.4-.02a2.328 2.328 0 0 1-.38-.08l-2.19-.54a3.214 3.214 0 0 1-1.65-1.03 2.862 2.862 0 0 1-.44-.65 3.277 3.277 0 0 1-.34-1.44v-1.307a4.43 4.43 0 0 0 2.823 1.613z" opacity="1" data-original="#d9d9d9"></path><path fill="#cd2e3a" d="m23.809 9.831 2-5.322L27 4l-1 7-.12.46a3.6 3.6 0 0 0-2.071-1.629z" opacity="1" data-original="#cd2e3a"></path><path fill="#ffd45d" d="M26 18h12v1H26zM26 20h12v1H26zM29 21h1v26h-1zM26 21h1v26h-1z" opacity="1" data-original="#ffd45d"></path><path fill="#f0af4c" d="M26 21h1v3h-1zM29 21h1v3h-1z" opacity="1" data-original="#f0af4c"></path><path fill="#456bba" d="M27 21h2v3h-2z" opacity="1" data-original="#456bba"></path><path fill="#26508c" d="M28 47h-2V21l-1 9.667V48h2v2h1z" opacity="1" data-original="#26508c"></path><g fill="#cd2e3a"><path d="m25 15 1 3h12l1-3s-2 1-7 1-7-1-7-1zM33.077 31a18.708 18.708 0 0 1 9.142 2.092 6.314 6.314 0 0 1 1.64 1.322 45.5 45.5 0 0 0-1.529-5.1A32.137 32.137 0 0 0 38 21h-8v10.027c.3-.011.6-.027.923-.027zM28 47h1v2h-1zM24.88 31.823 25.793 23 26 21a32.137 32.137 0 0 0-4.33 8.31 45.5 45.5 0 0 0-1.529 5.1 6.314 6.314 0 0 1 1.64-1.322 15.462 15.462 0 0 1 2.279-1L22 52h5v-2h-4zM50.013 31.493 52 30.5l-.78-1.17a3.214 3.214 0 0 1-1.65 1.03l-2.19.54a2.328 2.328 0 0 1-.38.08V31l2 3 1-.5-.372-.557a1 1 0 0 1 .385-1.45zM13.987 31.493 12 30.5l.78-1.17a3.214 3.214 0 0 0 1.65 1.03l2.19.54a2.328 2.328 0 0 0 .38.08V31l-2 3-1-.5.372-.557a1 1 0 0 0-.385-1.45z" fill="#cd2e3a" opacity="1" data-original="#cd2e3a"></path></g><path fill="#eb3542" d="M37.163 5.14 37 4l-5 1-5-1-.163 1.14L32 6z" opacity="1" data-original="#eb3542"></path><path fill="#d9d9d9" d="M35.449 9.791A24.467 24.467 0 0 1 32 10a24.467 24.467 0 0 1-3.449-.209 2.953 2.953 0 0 1-2.164-1.5L26 11h12l-.387-2.708a2.953 2.953 0 0 1-2.164 1.499z" opacity="1" data-original="#d9d9d9"></path><path fill="#eb3542" d="m44 24 6.524-2.447c-.092-.106-.184-.213-.284-.313l-.34-.34a6.033 6.033 0 0 1-1.044-1.41L43 22z" opacity="1" data-original="#eb3542"></path><path fill="#cd2e3a" d="M43 22h-4.292c.325.491.74 1.16 1.2 2H44z" opacity="1" data-original="#cd2e3a"></path><path fill="#eb3542" d="m21 22-5.856-2.51A6.033 6.033 0 0 1 14.1 20.9l-.34.34c-.1.1-.192.207-.284.313L20 24z" opacity="1" data-original="#eb3542"></path><path fill="#cd2e3a" d="M20 24h4.087c.465-.84.88-1.509 1.205-2H21z" opacity="1" data-original="#cd2e3a"></path><path fill="#eb3542" d="M31 9h.5v.5a.5.5 0 0 0 1 0V9h.5a.5.5 0 0 0 0-1h-.5v-.5a.5.5 0 0 0-1 0V8H31a.5.5 0 0 0 0 1z" opacity="1" data-original="#eb3542"></path><path fill="#f0f0f0" d="M44.5 54H44v-.5a.5.5 0 0 0-1 0v.5h-.5a.5.5 0 0 0 0 1h.5v.5a.5.5 0 0 0 1 0V55h.5a.5.5 0 0 0 0-1zM21.5 54H21v-.5a.5.5 0 0 0-1 0v.5h-.5a.5.5 0 0 0 0 1h.5v.5a.5.5 0 0 0 1 0V55h.5a.5.5 0 0 0 0-1zM33 55h-.5v-.5a.5.5 0 0 0-1 0v.5H31a.5.5 0 0 0 0 1h.5v.5a.5.5 0 0 0 1 0V56h.5a.5.5 0 0 0 0-1zM38.5 54H38v-.5a.5.5 0 0 0-1 0v.5h-.5a.5.5 0 0 0 0 1h.5v.5a.5.5 0 0 0 1 0V55h.5a.5.5 0 0 0 0-1zM27.5 54H27v-.5a.5.5 0 0 0-1 0v.5h-.5a.5.5 0 0 0 0 1h.5v.5a.5.5 0 0 0 1 0V55h.5a.5.5 0 0 0 0-1z" opacity="1" data-original="#f0f0f0" class=""></path><path fill="#569d95" d="M30.015 10a1.959 1.959 0 0 1-2-2 1.959 1.959 0 0 1 2 2zM34.015 10a1.959 1.959 0 0 0 2-2 1.959 1.959 0 0 0-2 2z" opacity="1" data-original="#569d95"></path><circle cx="34.5" cy="12.5" r=".5" fill="#f0f0f0" opacity="1" data-original="#f0f0f0" class=""></circle><path fill="#569d95" d="M40.013 9a1.958 1.958 0 0 0 2-2 1.958 1.958 0 0 0-2 2z" opacity="1" data-original="#569d95"></path><circle cx="40.5" cy="6.5" r=".5" fill="#f0f0f0" opacity="1" data-original="#f0f0f0" class=""></circle><circle cx="42.5" cy="8.5" r=".5" fill="#f0f0f0" opacity="1" data-original="#f0f0f0" class=""></circle><path fill="#569d95" d="M23.987 9a1.958 1.958 0 0 1-2-2 1.958 1.958 0 0 1 2 2z" opacity="1" data-original="#569d95"></path><circle cx="23.5" cy="6.5" r=".5" fill="#f0f0f0" opacity="1" data-original="#f0f0f0" class=""></circle><circle cx="21.5" cy="8.5" r=".5" fill="#f0f0f0" opacity="1" data-original="#f0f0f0" class=""></circle><circle cx="29.5" cy="12.5" r=".5" fill="#f0f0f0" opacity="1" data-original="#f0f0f0" class=""></circle><path fill="#569d95" d="M32 15s0-2-3-2c0 0 0 2 3 2zM32 15s0-2 3-2c0 0 0 2-3 2z" opacity="1" data-original="#569d95"></path><path fill="#ffa1a1" d="M33.944 13.1c-.206-.873-1-2.1-1.944-2.1s-1.738 1.229-1.944 2.1C32 13.507 32 15 32 15s0-1.493 1.944-1.9z" opacity="1" data-original="#ffa1a1"></path><path fill="#ff4f5f" d="M32 15a2.059 2.059 0 0 1 1.579-1.785A2.065 2.065 0 0 0 32 12a2.065 2.065 0 0 0-1.579 1.215A2.059 2.059 0 0 1 32 15zM50.918 23.082a.753.753 0 0 1-.093.825.54.54 0 0 1-.117.093.54.54 0 0 1 .117.093.753.753 0 0 1 .093.825.753.753 0 0 1-.825-.093.54.54 0 0 1-.093-.117.54.54 0 0 1-.093.117.753.753 0 0 1-.825.093.753.753 0 0 1 .093-.825.54.54 0 0 1 .117-.093.54.54 0 0 1-.117-.093.753.753 0 0 1-.093-.825.753.753 0 0 1 .825.093.54.54 0 0 1 .093.117.54.54 0 0 1 .093-.117.753.753 0 0 1 .825-.093zM47.918 25.082a.753.753 0 0 1-.093.825.54.54 0 0 1-.117.093.54.54 0 0 1 .117.093.753.753 0 0 1 .093.825.753.753 0 0 1-.825-.093.54.54 0 0 1-.093-.117.54.54 0 0 1-.093.117.753.753 0 0 1-.825.093.753.753 0 0 1 .093-.825.54.54 0 0 1 .117-.093.54.54 0 0 1-.117-.093.753.753 0 0 1-.093-.825.753.753 0 0 1 .825.093.54.54 0 0 1 .093.117.54.54 0 0 1 .093-.117.753.753 0 0 1 .825-.093z" opacity="1" data-original="#ff4f5f"></path><path fill="#cd2e3a" d="M43.918 25.082a.753.753 0 0 1-.093.825.54.54 0 0 1-.117.093.54.54 0 0 1 .117.093.753.753 0 0 1 .093.825.753.753 0 0 1-.825-.093.54.54 0 0 1-.093-.117.54.54 0 0 1-.093.117.753.753 0 0 1-.825.093.753.753 0 0 1 .093-.825.54.54 0 0 1 .117-.093.54.54 0 0 1-.117-.093.753.753 0 0 1-.093-.825.753.753 0 0 1 .825.093.54.54 0 0 1 .093.117.54.54 0 0 1 .093-.117.753.753 0 0 1 .825-.093z" opacity="1" data-original="#cd2e3a"></path><path fill="#ff4f5f" d="M13.082 23.082a.753.753 0 0 0 .093.825.54.54 0 0 0 .117.093.54.54 0 0 0-.117.093.753.753 0 0 0-.093.825.753.753 0 0 0 .825-.093.54.54 0 0 0 .093-.117.54.54 0 0 0 .093.117.753.753 0 0 0 .825.093.753.753 0 0 0-.093-.825.54.54 0 0 0-.117-.093.54.54 0 0 0 .117-.093.753.753 0 0 0 .093-.825.753.753 0 0 0-.825.093.54.54 0 0 0-.093.117.54.54 0 0 0-.093-.117.753.753 0 0 0-.825-.093zM16.082 25.082a.753.753 0 0 0 .093.825.54.54 0 0 0 .117.093.54.54 0 0 0-.117.093.753.753 0 0 0-.093.825.753.753 0 0 0 .825-.093.54.54 0 0 0 .093-.117.54.54 0 0 0 .093.117.753.753 0 0 0 .825.093.753.753 0 0 0-.093-.825.54.54 0 0 0-.117-.093.54.54 0 0 0 .117-.093.753.753 0 0 0 .093-.825.753.753 0 0 0-.825.093.54.54 0 0 0-.093.117.54.54 0 0 0-.093-.117.753.753 0 0 0-.825-.093z" opacity="1" data-original="#ff4f5f"></path><path fill="#cd2e3a" d="M20.082 25.082a.753.753 0 0 0 .093.825.54.54 0 0 0 .117.093.54.54 0 0 0-.117.093.753.753 0 0 0-.093.825.753.753 0 0 0 .825-.093.54.54 0 0 0 .093-.117.54.54 0 0 0 .093.117.753.753 0 0 0 .825.093.753.753 0 0 0-.093-.825.54.54 0 0 0-.117-.093.54.54 0 0 0 .117-.093.753.753 0 0 0 .093-.825.753.753 0 0 0-.825.093.54.54 0 0 0-.093.117.54.54 0 0 0-.093-.117.753.753 0 0 0-.825-.093z" opacity="1" data-original="#cd2e3a"></path><path fill="#ff4f5f" d="M36.918 13.082a.753.753 0 0 1-.093.825.54.54 0 0 1-.117.093.54.54 0 0 1 .117.093.753.753 0 0 1 .093.825.753.753 0 0 1-.825-.093.54.54 0 0 1-.093-.117.54.54 0 0 1-.093.117.753.753 0 0 1-.825.093.753.753 0 0 1 .093-.825.54.54 0 0 1 .117-.093.54.54 0 0 1-.117-.093.753.753 0 0 1-.093-.825.753.753 0 0 1 .825.093.54.54 0 0 1 .093.117.54.54 0 0 1 .093-.117.753.753 0 0 1 .825-.093zM28.918 13.082a.753.753 0 0 1-.093.825.54.54 0 0 1-.117.093.54.54 0 0 1 .117.093.753.753 0 0 1 .093.825.753.753 0 0 1-.825-.093.54.54 0 0 1-.093-.117.54.54 0 0 1-.093.117.753.753 0 0 1-.825.093.753.753 0 0 1 .093-.825.54.54 0 0 1 .117-.093.54.54 0 0 1-.117-.093.753.753 0 0 1-.093-.825.753.753 0 0 1 .825.093.54.54 0 0 1 .093.117.54.54 0 0 1 .093-.117.753.753 0 0 1 .825-.093z" opacity="1" data-original="#ff4f5f"></path><path fill="#569d95" d="M36.426 16a1.957 1.957 0 0 1-2.826 0 1.957 1.957 0 0 1 2.826 0zM30.428 16a1.957 1.957 0 0 1-2.828 0 1.957 1.957 0 0 1 2.828 0z" opacity="1" data-original="#569d95"></path><path fill="#ff4f5f" d="M33.835 14.165a1.508 1.508 0 0 1-.185 1.65 1.052 1.052 0 0 1-.235.185 1.052 1.052 0 0 1 .235.185 1.508 1.508 0 0 1 .185 1.65 1.508 1.508 0 0 1-1.65-.185 1.052 1.052 0 0 1-.185-.235 1.052 1.052 0 0 1-.185.235 1.508 1.508 0 0 1-1.65.185 1.508 1.508 0 0 1 .185-1.65 1.052 1.052 0 0 1 .235-.185 1.052 1.052 0 0 1-.235-.185 1.508 1.508 0 0 1-.185-1.65 1.508 1.508 0 0 1 1.65.185 1.052 1.052 0 0 1 .185.235 1.052 1.052 0 0 1 .185-.235 1.508 1.508 0 0 1 1.65-.185z" opacity="1" data-original="#ff4f5f"></path><circle cx="32" cy="16" r="1" fill="#ffa1a1" opacity="1" data-original="#ffa1a1"></circle></g></g></svg>
