<svg xmlns="http://www.w3.org/2000/svg" version="1.1" xmlns:xlink="http://www.w3.org/1999/xlink" width="100" height="100" x="0" y="0" viewBox="0 0 512 512" style="enable-background:new 0 0 512 512" xml:space="preserve" class=""><g><path d="m380.249 288.579 30.249-54.249 94-26.813c-57.442 59.74-78.656 183.33-43 234.859l-66-23-15.249-28.672-347.276-23.787c-14.341-.982-25.471-12.902-25.471-27.276s11.131-26.293 25.471-27.276l347.276-23.786z" style="" fill="#ffb272" data-original="#ffb272"></path><path d="M37.502 339.641c0-12.033 9.133-24.63 20.52-28.992l-25.049 1.716c-14.341.982-25.471 12.902-25.471 27.276s11.131 26.294 25.471 27.276l25.171 1.724c-11.934-3.471-20.642-16.286-20.642-29zM410.498 234.33l-30.249 54.249 28.115-3.002a7 7 0 0 0 5.635-3.575l26.498-47.672 54.077-15.425.002-.002a158.392 158.392 0 0 1 9.921-11.386l-93.999 26.813zM425.498 419.375l-13.424-22.656a7 7 0 0 0-5.702-3.697l-26.123-2.32 15.249 28.672 66 23c-2.71-3.917-5.092-8.251-7.154-12.941l-.003-.007-28.843-10.051z" style="" fill="#d38a54" data-original="#d38a54"></path><path d="m349.19 290.712-.002-.006-31.068 2.128v93.608l.004.006 31.064 2.128.002-.004zM256 297.092l-.001-.003-31.059 2.127v80.846l.002.003L256 382.193v-.001z" style="" fill="#fed402" data-original="#fed402"></path><path d="M54.095 121.09c0-5.816-4.715-10.531-10.531-10.531h-5c-17.155 0-31.062 13.907-31.062 31.062s13.907 31.062 31.062 31.062h93.187v-41.062H64.626c-5.816.001-10.531-4.714-10.531-10.531z" style="" fill="#af6a3a" data-original="#af6a3a"></path><path d="M37.502 141.622c0-11.181 5.908-20.982 14.772-26.452a10.518 10.518 0 0 0-8.71-4.61h-5c-17.155 0-31.062 13.907-31.062 31.062s13.907 31.062 31.062 31.062h30c-17.155 0-31.062-13.907-31.062-31.062z" style="" fill="#8c5835" data-original="#8c5835"></path><path d="M189.097 116.222c14.308 9.625 27.345 9.875 38.933-6.803 22.449-32.309 67.937-24.82 90.176 13.378 14.256 24.487 30.237 10.549 37.996-1.912 21.306-34.216 57.072-19.591 71.724 8.209 8.645 13.923 27.358 14.827 38.691 6.474 16.275-11.995 32.056-3.815 37.882 11.716-24.287-5.621-32.691 12.657-46.226 21.68-8.161 5.44-29.984 11.382-41.286-10.174-8.972-17.113-32.952-29.802-44.734-3.323-15.964 35.879-63.852 38.824-81.272 5.629-8.615-16.417-24-13.812-32 2.393-16.058 32.529-42.932 41.356-70.818 25.735-14.61-8.184-32.687-2.748-41.049 12.596-6.02 11.047-10.372 24.322-15.362 38.65V69.628c-.001 0 38.165 33.692 57.345 46.594z" style="" fill="#e5ecf5" data-original="#e5ecf5"></path><path d="M161.751 95.175c-15.572-12.81-30-25.546-30-25.546v170.842c4.99-14.328 9.341-27.603 15.362-38.65 3.5-6.422 8.702-11.108 14.638-13.787V95.175z" style="" fill="#cad8eb" data-original="#cad8eb"></path><path d="M189.097 116.222c14.308 9.625 27.345 9.875 38.933-6.803 22.449-32.309 67.937-24.82 90.176 13.378 14.256 24.487 30.237 10.549 37.996-1.912 21.306-34.216 57.072-19.591 71.724 8.209 8.645 13.923 27.358 14.827 38.691 6.474 16.275-11.995 32.056-3.815 37.882 11.716-24.287-5.621-32.691 12.657-46.226 21.68-8.161 5.44-29.984 11.382-41.286-10.174-8.972-17.113-32.952-29.802-44.734-3.323-15.964 35.879-63.852 38.824-81.272 5.629-8.615-16.417-24-13.812-32 2.393-16.058 32.529-42.932 41.356-70.818 25.735-14.61-8.184-32.687-2.748-41.049 12.596-6.02 11.047-10.372 24.322-15.362 38.65V69.628c-.001 0 38.165 33.692 57.345 46.594zM85.97 172.682h45.78v-41.06H64.63c-5.82 0-10.53-4.72-10.53-10.53 0-5.82-4.72-10.53-10.54-10.53h-5c-17.15 0-31.06 13.9-31.06 31.06 0 8.58 3.48 16.34 9.1 21.96 5.62 5.62 13.38 9.1 21.96 9.1h14.72M100.689 131.622v41.062M163.76 375.872l216.49 14.83 15.25 28.67 66 23c-15.07-21.78-19.98-56.43-16.29-93.7M131.14 373.642l-98.17-6.73c-14.34-.98-25.47-12.9-25.47-27.27 0-7.19 2.78-13.76 7.36-18.66a27.29 27.29 0 0 1 18.11-8.62l347.28-23.78 30.25-54.25 94-26.82c-26.24 27.29-44.92 67.91-54.07 108.89M318.12 386.442v-93.61M349.19 388.572v-97.86M224.94 380.062v-80.85M256 382.192v-85.1" style="stroke-width:15;stroke-linecap:round;stroke-linejoin:round;stroke-miterlimit:10;" fill="none" stroke="#000000" stroke-width="15" stroke-linecap="round" stroke-linejoin="round" stroke-miterlimit="10" data-original="#000000"></path></g></svg>
