<svg xmlns="http://www.w3.org/2000/svg" version="1.1" xmlns:xlink="http://www.w3.org/1999/xlink" width="100" height="100" x="0" y="0" viewBox="0 0 512 512" style="enable-background:new 0 0 512 512" xml:space="preserve" class=""><g><path d="M38.564 426.844h434.872v31.062H38.564z" style="" fill="#ffb272" data-original="#ffb272" class=""></path><path d="M38.564 426.844h30v31.062h-30z" style="" fill="#d38a54" data-original="#d38a54"></path><path d="M100.689 302.595h310.623v124.249H100.689z" style="" fill="#af6a3a" data-original="#af6a3a"></path><path d="M100.689 302.595h30v124.249h-30z" style="" fill="#8c5835" data-original="#8c5835" class=""></path><path d="M7.502 271.533h496.996v31.062H7.502z" style="" fill="#ffb272" data-original="#ffb272" class=""></path><path d="M7.502 271.533h30v31.062h-30z" style="" fill="#d38a54" data-original="#d38a54"></path><path d="m7.502 271.533 155.311-62.125 46.594-124.249h93.186l46.594 124.249 155.311 62.125z" style="" fill="#fd4755" data-original="#fd4755"></path><path d="M239.407 85.159h-30l-46.594 124.249L7.502 271.533h30l155.311-62.125z" style="" fill="#fb2b3a" data-original="#fb2b3a"></path><path d="M112.337 123.987h-3.883c0-12.866-10.43-23.297-23.297-23.297-12.866 0-23.297 10.43-23.297 23.297h-3.883c-10.722 0-19.414 8.692-19.414 19.414 0 10.722 8.692 19.414 19.414 19.414h54.359c10.722 0 19.414-8.692 19.414-19.414.001-10.722-8.691-19.414-19.413-19.414z" style="" fill="#e5ecf5" data-original="#e5ecf5"></path><path d="M68.564 143.401c0-10.722 8.692-19.414 19.414-19.414h.17c2.02 0 3.674-1.51 3.975-3.507a23.27 23.27 0 0 1 8.034-14.318 23.203 23.203 0 0 0-15-5.471c-12.866 0-23.297 10.43-23.297 23.297h-3.883c-10.722 0-19.414 8.692-19.414 19.414 0 10.722 8.692 19.414 19.414 19.414h30c-10.721-.001-19.413-8.693-19.413-19.415z" style="" fill="#cad8eb" data-original="#cad8eb"></path><path d="M454.022 77.394h-3.883c0-12.866-10.43-23.297-23.297-23.297-12.866 0-23.297 10.43-23.297 23.297h-3.883c-10.722 0-19.414 8.692-19.414 19.414 0 10.722 8.692 19.414 19.414 19.414h54.359c10.722 0 19.414-8.692 19.414-19.414.001-10.722-8.691-19.414-19.413-19.414z" style="" fill="#e5ecf5" data-original="#e5ecf5"></path><path d="M410.249 96.808c0-10.722 8.692-19.414 19.414-19.414h.17c2.02 0 3.674-1.51 3.975-3.507a23.27 23.27 0 0 1 8.034-14.318 23.203 23.203 0 0 0-15-5.471c-12.866 0-23.297 10.43-23.297 23.297h-3.883c-10.722 0-19.414 8.692-19.414 19.414 0 10.722 8.692 19.414 19.414 19.414h30c-10.721-.001-19.413-8.693-19.413-19.415z" style="" fill="#cad8eb" data-original="#cad8eb"></path><path d="M365.53 457.903h107.91v-31.06H38.56v31.06h294.28" style="stroke-width:15;stroke-linecap:round;stroke-linejoin:round;stroke-miterlimit:10;" fill="none" stroke="#000000" stroke-width="15" stroke-linecap="round" stroke-linejoin="round" stroke-miterlimit="10" data-original="#000000" class=""></path><path d="M100.689 302.595h310.623v124.249H100.689z" style="stroke-width:15;stroke-linecap:round;stroke-linejoin:round;stroke-miterlimit:10;" fill="none" stroke="#000000" stroke-width="15" stroke-linecap="round" stroke-linejoin="round" stroke-miterlimit="10" data-original="#000000" class=""></path><path d="M224.938 333.657h62.125v93.187h-62.125z" style="" fill="#8c5835" data-original="#8c5835" class=""></path><path d="M224.938 333.657h62.125v93.187h-62.125zM162.813 302.595v124.249M69.626 302.595v124.249M442.374 302.595v124.249M349.187 302.595v124.249M179.16 271.533H504.5v31.06H7.5v-31.06h138.97M179.16 271.533H504.5l-155.31-62.12-46.6-124.25h-93.18l-46.6 124.25L7.5 271.533h138.97M162.813 209.408h186.374M85.158 240.471h341.684M325.89 147.283h-53.55M239.66 147.283h-53.55M197.758 116.222h116.484M174.345 178.657h163.193M100.689 395.782h124.249M287.062 395.782h124.249M112.337 123.987h-3.883c0-12.866-10.43-23.297-23.297-23.297-12.866 0-23.297 10.43-23.297 23.297h-3.883c-10.722 0-19.414 8.692-19.414 19.414v0c0 10.722 8.692 19.414 19.414 19.414h54.359c10.722 0 19.414-8.692 19.414-19.414v0c.001-10.722-8.691-19.414-19.413-19.414zM454.022 77.394h-3.883c0-12.866-10.43-23.297-23.297-23.297-12.866 0-23.297 10.43-23.297 23.297h-3.883c-10.722 0-19.414 8.692-19.414 19.414v0c0 10.722 8.692 19.414 19.414 19.414h54.359c10.722 0 19.414-8.692 19.414-19.414v0c.001-10.722-8.691-19.414-19.413-19.414z" style="stroke-width:15;stroke-linecap:round;stroke-linejoin:round;stroke-miterlimit:10;" fill="none" stroke="#000000" stroke-width="15" stroke-linecap="round" stroke-linejoin="round" stroke-miterlimit="10" data-original="#000000" class=""></path></g></svg>
